%TF.GenerationSoftware,KiCad,Pcbnew,6.0.2+dfsg-1*%
%TF.CreationDate,2025-02-13T14:12:06+01:00*%
%TF.ProjectId,LM259610,4c4d3235-3936-4313-902e-6b696361645f,rev?*%
%TF.SameCoordinates,Original*%
%TF.FileFunction,Legend,Bot*%
%TF.FilePolarity,Positive*%
%FSLAX46Y46*%
G04 Gerber Fmt 4.6, Leading zero omitted, Abs format (unit mm)*
G04 Created by KiCad (PCBNEW 6.0.2+dfsg-1) date 2025-02-13 14:12:06*
%MOMM*%
%LPD*%
G01*
G04 APERTURE LIST*
%ADD10C,0.300000*%
G04 APERTURE END LIST*
D10*
X200400000Y-129059714D02*
X200471428Y-129131142D01*
X200685714Y-129202571D01*
X200828571Y-129202571D01*
X201042857Y-129131142D01*
X201185714Y-128988285D01*
X201257142Y-128845428D01*
X201328571Y-128559714D01*
X201328571Y-128345428D01*
X201257142Y-128059714D01*
X201185714Y-127916857D01*
X201042857Y-127774000D01*
X200828571Y-127702571D01*
X200685714Y-127702571D01*
X200471428Y-127774000D01*
X200400000Y-127845428D01*
X199542857Y-129202571D02*
X199685714Y-129131142D01*
X199757142Y-129059714D01*
X199828571Y-128916857D01*
X199828571Y-128488285D01*
X199757142Y-128345428D01*
X199685714Y-128274000D01*
X199542857Y-128202571D01*
X199328571Y-128202571D01*
X199185714Y-128274000D01*
X199114285Y-128345428D01*
X199042857Y-128488285D01*
X199042857Y-128916857D01*
X199114285Y-129059714D01*
X199185714Y-129131142D01*
X199328571Y-129202571D01*
X199542857Y-129202571D01*
X198400000Y-128202571D02*
X198400000Y-129202571D01*
X198400000Y-128345428D02*
X198328571Y-128274000D01*
X198185714Y-128202571D01*
X197971428Y-128202571D01*
X197828571Y-128274000D01*
X197757142Y-128416857D01*
X197757142Y-129202571D01*
X197185714Y-128202571D02*
X196828571Y-129202571D01*
X196471428Y-128202571D01*
X195328571Y-129131142D02*
X195471428Y-129202571D01*
X195757142Y-129202571D01*
X195900000Y-129131142D01*
X195971428Y-128988285D01*
X195971428Y-128416857D01*
X195900000Y-128274000D01*
X195757142Y-128202571D01*
X195471428Y-128202571D01*
X195328571Y-128274000D01*
X195257142Y-128416857D01*
X195257142Y-128559714D01*
X195971428Y-128702571D01*
X194614285Y-129202571D02*
X194614285Y-128202571D01*
X194614285Y-128488285D02*
X194542857Y-128345428D01*
X194471428Y-128274000D01*
X194328571Y-128202571D01*
X194185714Y-128202571D01*
X193757142Y-129131142D02*
X193614285Y-129202571D01*
X193328571Y-129202571D01*
X193185714Y-129131142D01*
X193114285Y-128988285D01*
X193114285Y-128916857D01*
X193185714Y-128774000D01*
X193328571Y-128702571D01*
X193542857Y-128702571D01*
X193685714Y-128631142D01*
X193757142Y-128488285D01*
X193757142Y-128416857D01*
X193685714Y-128274000D01*
X193542857Y-128202571D01*
X193328571Y-128202571D01*
X193185714Y-128274000D01*
X192257142Y-129202571D02*
X192400000Y-129131142D01*
X192471428Y-129059714D01*
X192542857Y-128916857D01*
X192542857Y-128488285D01*
X192471428Y-128345428D01*
X192400000Y-128274000D01*
X192257142Y-128202571D01*
X192042857Y-128202571D01*
X191900000Y-128274000D01*
X191828571Y-128345428D01*
X191757142Y-128488285D01*
X191757142Y-128916857D01*
X191828571Y-129059714D01*
X191900000Y-129131142D01*
X192042857Y-129202571D01*
X192257142Y-129202571D01*
X191114285Y-129202571D02*
X191114285Y-128202571D01*
X191114285Y-128488285D02*
X191042857Y-128345428D01*
X190971428Y-128274000D01*
X190828571Y-128202571D01*
X190685714Y-128202571D01*
X189042857Y-129202571D02*
X189042857Y-127702571D01*
X189042857Y-128274000D02*
X188900000Y-128202571D01*
X188614285Y-128202571D01*
X188471428Y-128274000D01*
X188400000Y-128345428D01*
X188328571Y-128488285D01*
X188328571Y-128916857D01*
X188400000Y-129059714D01*
X188471428Y-129131142D01*
X188614285Y-129202571D01*
X188900000Y-129202571D01*
X189042857Y-129131142D01*
X187042857Y-128202571D02*
X187042857Y-129202571D01*
X187685714Y-128202571D02*
X187685714Y-128988285D01*
X187614285Y-129131142D01*
X187471428Y-129202571D01*
X187257142Y-129202571D01*
X187114285Y-129131142D01*
X187042857Y-129059714D01*
X185685714Y-129131142D02*
X185828571Y-129202571D01*
X186114285Y-129202571D01*
X186257142Y-129131142D01*
X186328571Y-129059714D01*
X186399999Y-128916857D01*
X186399999Y-128488285D01*
X186328571Y-128345428D01*
X186257142Y-128274000D01*
X186114285Y-128202571D01*
X185828571Y-128202571D01*
X185685714Y-128274000D01*
X185042857Y-129202571D02*
X185042857Y-127702571D01*
X184899999Y-128631142D02*
X184471428Y-129202571D01*
X184471428Y-128202571D02*
X185042857Y-128774000D01*
X181971428Y-129202571D02*
X182685714Y-129202571D01*
X182685714Y-127702571D01*
X181471428Y-129202571D02*
X181471428Y-127702571D01*
X180971428Y-128774000D01*
X180471428Y-127702571D01*
X180471428Y-129202571D01*
X179828571Y-127845428D02*
X179757142Y-127774000D01*
X179614285Y-127702571D01*
X179257142Y-127702571D01*
X179114285Y-127774000D01*
X179042857Y-127845428D01*
X178971428Y-127988285D01*
X178971428Y-128131142D01*
X179042857Y-128345428D01*
X179899999Y-129202571D01*
X178971428Y-129202571D01*
X177614285Y-127702571D02*
X178328571Y-127702571D01*
X178399999Y-128416857D01*
X178328571Y-128345428D01*
X178185714Y-128274000D01*
X177828571Y-128274000D01*
X177685714Y-128345428D01*
X177614285Y-128416857D01*
X177542857Y-128559714D01*
X177542857Y-128916857D01*
X177614285Y-129059714D01*
X177685714Y-129131142D01*
X177828571Y-129202571D01*
X178185714Y-129202571D01*
X178328571Y-129131142D01*
X178399999Y-129059714D01*
X176828571Y-129202571D02*
X176542857Y-129202571D01*
X176399999Y-129131142D01*
X176328571Y-129059714D01*
X176185714Y-128845428D01*
X176114285Y-128559714D01*
X176114285Y-127988285D01*
X176185714Y-127845428D01*
X176257142Y-127774000D01*
X176399999Y-127702571D01*
X176685714Y-127702571D01*
X176828571Y-127774000D01*
X176899999Y-127845428D01*
X176971428Y-127988285D01*
X176971428Y-128345428D01*
X176899999Y-128488285D01*
X176828571Y-128559714D01*
X176685714Y-128631142D01*
X176399999Y-128631142D01*
X176257142Y-128559714D01*
X176185714Y-128488285D01*
X176114285Y-128345428D01*
X174828571Y-127702571D02*
X175114285Y-127702571D01*
X175257142Y-127774000D01*
X175328571Y-127845428D01*
X175471428Y-128059714D01*
X175542857Y-128345428D01*
X175542857Y-128916857D01*
X175471428Y-129059714D01*
X175399999Y-129131142D01*
X175257142Y-129202571D01*
X174971428Y-129202571D01*
X174828571Y-129131142D01*
X174757142Y-129059714D01*
X174685714Y-128916857D01*
X174685714Y-128559714D01*
X174757142Y-128416857D01*
X174828571Y-128345428D01*
X174971428Y-128274000D01*
X175257142Y-128274000D01*
X175399999Y-128345428D01*
X175471428Y-128416857D01*
X175542857Y-128559714D01*
X172899999Y-128631142D02*
X171757142Y-128631142D01*
X169114285Y-129202571D02*
X169971428Y-129202571D01*
X169542857Y-129202571D02*
X169542857Y-127702571D01*
X169685714Y-127916857D01*
X169828571Y-128059714D01*
X169971428Y-128131142D01*
X168471428Y-129059714D02*
X168399999Y-129131142D01*
X168471428Y-129202571D01*
X168542857Y-129131142D01*
X168471428Y-129059714D01*
X168471428Y-129202571D01*
X167471428Y-127702571D02*
X167328571Y-127702571D01*
X167185714Y-127774000D01*
X167114285Y-127845428D01*
X167042857Y-127988285D01*
X166971428Y-128274000D01*
X166971428Y-128631142D01*
X167042857Y-128916857D01*
X167114285Y-129059714D01*
X167185714Y-129131142D01*
X167328571Y-129202571D01*
X167471428Y-129202571D01*
X167614285Y-129131142D01*
X167685714Y-129059714D01*
X167757142Y-128916857D01*
X167828571Y-128631142D01*
X167828571Y-128274000D01*
X167757142Y-127988285D01*
X167685714Y-127845428D01*
X167614285Y-127774000D01*
X167471428Y-127702571D01*
M02*
