%TF.GenerationSoftware,KiCad,Pcbnew,6.0.2+dfsg-1*%
%TF.CreationDate,2025-02-13T14:12:05+01:00*%
%TF.ProjectId,LM259610,4c4d3235-3936-4313-902e-6b696361645f,rev?*%
%TF.SameCoordinates,Original*%
%TF.FileFunction,Copper,L2,Bot*%
%TF.FilePolarity,Positive*%
%FSLAX46Y46*%
G04 Gerber Fmt 4.6, Leading zero omitted, Abs format (unit mm)*
G04 Created by KiCad (PCBNEW 6.0.2+dfsg-1) date 2025-02-13 14:12:05*
%MOMM*%
%LPD*%
G01*
G04 APERTURE LIST*
%TA.AperFunction,ComponentPad*%
%ADD10O,1.200000X1.600000*%
%TD*%
%TA.AperFunction,ComponentPad*%
%ADD11O,1.200000X1.200000*%
%TD*%
%TA.AperFunction,ComponentPad*%
%ADD12R,1.600000X1.600000*%
%TD*%
%TA.AperFunction,ComponentPad*%
%ADD13C,1.600000*%
%TD*%
%TA.AperFunction,ComponentPad*%
%ADD14R,3.200000X3.200000*%
%TD*%
%TA.AperFunction,ComponentPad*%
%ADD15O,3.200000X3.200000*%
%TD*%
%TA.AperFunction,ComponentPad*%
%ADD16R,1.800000X1.800000*%
%TD*%
%TA.AperFunction,ComponentPad*%
%ADD17O,1.800000X1.800000*%
%TD*%
%TA.AperFunction,ComponentPad*%
%ADD18R,1.700000X1.700000*%
%TD*%
%TA.AperFunction,ComponentPad*%
%ADD19O,1.700000X1.700000*%
%TD*%
%TA.AperFunction,ViaPad*%
%ADD20C,0.800000*%
%TD*%
%TA.AperFunction,Conductor*%
%ADD21C,1.000000*%
%TD*%
%TA.AperFunction,Conductor*%
%ADD22C,0.500000*%
%TD*%
G04 APERTURE END LIST*
D10*
%TO.P,Q1,1,E*%
%TO.N,GND*%
X143764000Y-110998000D03*
D11*
%TO.P,Q1,2,B*%
%TO.N,/Vbe*%
X141224000Y-113538000D03*
%TO.P,Q1,3,C*%
%TO.N,/Vce*%
X143764000Y-116078000D03*
%TD*%
D12*
%TO.P,Cin1,1*%
%TO.N,/Vin*%
X145288000Y-125500651D03*
D13*
%TO.P,Cin1,2*%
%TO.N,GND*%
X145288000Y-121700651D03*
%TD*%
D12*
%TO.P,Cout1,1*%
%TO.N,/+5V*%
X195580000Y-113562651D03*
D13*
%TO.P,Cout1,2*%
%TO.N,GND*%
X195580000Y-109762651D03*
%TD*%
D14*
%TO.P,D1,1,K*%
%TO.N,/Vout*%
X166116000Y-125206000D03*
D15*
%TO.P,D1,2,A*%
%TO.N,GND*%
X166116000Y-107966000D03*
%TD*%
D16*
%TO.P,D2,1,K*%
%TO.N,Net-(D2-Pad1)*%
X132842000Y-122428000D03*
D17*
%TO.P,D2,2,A*%
%TO.N,/Vbe*%
X132842000Y-109728000D03*
%TD*%
D18*
%TO.P,J1,1,Pin_1*%
%TO.N,/+5V*%
X160777000Y-128270000D03*
D19*
%TO.P,J1,2,Pin_2*%
%TO.N,/Vce*%
X158237000Y-128270000D03*
%TO.P,J1,3,Pin_3*%
%TO.N,/Vbe*%
X155697000Y-128270000D03*
%TO.P,J1,4,Pin_4*%
%TO.N,GND*%
X153157000Y-128270000D03*
%TO.P,J1,5,Pin_5*%
%TO.N,/Vin*%
X150617000Y-128270000D03*
%TD*%
D20*
%TO.N,/Vce*%
X161036000Y-122428000D03*
%TD*%
D21*
%TO.N,GND*%
X148082000Y-110744000D02*
X151130000Y-110744000D01*
D22*
%TO.N,/Vbe*%
X143510000Y-118872000D02*
X141224000Y-116586000D01*
X155697000Y-123947000D02*
X150622000Y-118872000D01*
X155697000Y-128270000D02*
X155697000Y-123947000D01*
X141224000Y-116586000D02*
X141224000Y-113538000D01*
X150622000Y-118872000D02*
X143510000Y-118872000D01*
%TO.N,/Vce*%
X161036000Y-122428000D02*
X161036000Y-120142000D01*
X156972000Y-116078000D02*
X143764000Y-116078000D01*
X158237000Y-128270000D02*
X161036000Y-125471000D01*
X161036000Y-120142000D02*
X156972000Y-116078000D01*
X161036000Y-125471000D02*
X161036000Y-122428000D01*
%TD*%
%TA.AperFunction,Conductor*%
%TO.N,GND*%
G36*
X148532121Y-104160002D02*
G01*
X148578614Y-104213658D01*
X148590000Y-104266000D01*
X148590000Y-114428000D01*
X148569998Y-114496121D01*
X148516342Y-114542614D01*
X148464000Y-114554000D01*
X142108500Y-114554000D01*
X142040379Y-114533998D01*
X141993886Y-114480342D01*
X141982500Y-114428000D01*
X141982500Y-114405226D01*
X142002502Y-114337105D01*
X142011626Y-114324657D01*
X142024887Y-114308713D01*
X142141458Y-114168551D01*
X142241004Y-113990799D01*
X142242860Y-113985332D01*
X142242862Y-113985327D01*
X142304634Y-113803352D01*
X142304635Y-113803347D01*
X142306490Y-113797883D01*
X142335723Y-113596263D01*
X142337249Y-113538000D01*
X142318608Y-113335126D01*
X142263307Y-113139047D01*
X142252680Y-113117496D01*
X142175756Y-112961510D01*
X142173201Y-112956329D01*
X142154796Y-112931681D01*
X142054758Y-112797715D01*
X142054758Y-112797714D01*
X142051305Y-112793091D01*
X141901703Y-112654800D01*
X141855675Y-112625759D01*
X141734288Y-112549169D01*
X141734283Y-112549167D01*
X141729404Y-112546088D01*
X141540180Y-112470595D01*
X141340366Y-112430849D01*
X141334592Y-112430773D01*
X141334588Y-112430773D01*
X141231452Y-112429424D01*
X141136655Y-112428183D01*
X141130958Y-112429162D01*
X141130957Y-112429162D01*
X140941567Y-112461705D01*
X140935870Y-112462684D01*
X140744734Y-112533198D01*
X140569649Y-112637363D01*
X140416478Y-112771690D01*
X140412911Y-112776215D01*
X140412906Y-112776220D01*
X140326331Y-112886040D01*
X140290351Y-112931681D01*
X140195492Y-113111978D01*
X140135078Y-113306543D01*
X140111132Y-113508859D01*
X140124457Y-113712151D01*
X140174605Y-113909610D01*
X140259898Y-114094624D01*
X140263231Y-114099340D01*
X140312145Y-114168551D01*
X140377479Y-114260997D01*
X140381621Y-114265032D01*
X140427421Y-114309648D01*
X140462259Y-114371509D01*
X140465500Y-114399902D01*
X140465500Y-116518930D01*
X140464067Y-116537880D01*
X140460801Y-116559349D01*
X140461394Y-116566641D01*
X140461394Y-116566644D01*
X140465085Y-116612018D01*
X140465500Y-116622233D01*
X140465500Y-116630293D01*
X140465925Y-116633937D01*
X140468789Y-116658507D01*
X140469222Y-116662882D01*
X140475140Y-116735637D01*
X140477396Y-116742601D01*
X140478587Y-116748560D01*
X140479971Y-116754415D01*
X140480818Y-116761681D01*
X140505735Y-116830327D01*
X140507152Y-116834455D01*
X140517108Y-116865186D01*
X140529649Y-116903899D01*
X140533445Y-116910154D01*
X140535951Y-116915628D01*
X140538670Y-116921058D01*
X140541167Y-116927937D01*
X140545180Y-116934057D01*
X140545180Y-116934058D01*
X140581186Y-116988976D01*
X140583523Y-116992680D01*
X140621405Y-117055107D01*
X140625121Y-117059315D01*
X140625122Y-117059316D01*
X140628803Y-117063484D01*
X140628776Y-117063508D01*
X140631429Y-117066500D01*
X140634132Y-117069733D01*
X140638144Y-117075852D01*
X140643456Y-117080884D01*
X140694383Y-117129128D01*
X140696825Y-117131506D01*
X140933095Y-117367776D01*
X140967121Y-117430088D01*
X140970000Y-117456871D01*
X140970000Y-130684000D01*
X140949998Y-130752121D01*
X140896342Y-130798614D01*
X140844000Y-130810000D01*
X129666000Y-130810000D01*
X129597879Y-130789998D01*
X129551386Y-130736342D01*
X129540000Y-130684000D01*
X129540000Y-123376134D01*
X131433500Y-123376134D01*
X131440255Y-123438316D01*
X131491385Y-123574705D01*
X131578739Y-123691261D01*
X131695295Y-123778615D01*
X131831684Y-123829745D01*
X131893866Y-123836500D01*
X133790134Y-123836500D01*
X133852316Y-123829745D01*
X133988705Y-123778615D01*
X134105261Y-123691261D01*
X134192615Y-123574705D01*
X134243745Y-123438316D01*
X134250500Y-123376134D01*
X134250500Y-121479866D01*
X134243745Y-121417684D01*
X134192615Y-121281295D01*
X134105261Y-121164739D01*
X133988705Y-121077385D01*
X133852316Y-121026255D01*
X133790134Y-121019500D01*
X131893866Y-121019500D01*
X131831684Y-121026255D01*
X131695295Y-121077385D01*
X131578739Y-121164739D01*
X131491385Y-121281295D01*
X131440255Y-121417684D01*
X131433500Y-121479866D01*
X131433500Y-123376134D01*
X129540000Y-123376134D01*
X129540000Y-111268512D01*
X142657687Y-111268512D01*
X142670471Y-111402494D01*
X142672730Y-111414228D01*
X142728872Y-111605599D01*
X142733302Y-111616675D01*
X142824619Y-111793978D01*
X142831069Y-111804024D01*
X142954262Y-111960857D01*
X142962499Y-111969506D01*
X143113123Y-112100212D01*
X143122847Y-112107147D01*
X143295467Y-112207010D01*
X143306331Y-112211984D01*
X143494727Y-112277407D01*
X143495716Y-112277648D01*
X143506008Y-112276180D01*
X143510000Y-112262615D01*
X143510000Y-112258402D01*
X144018000Y-112258402D01*
X144021973Y-112271933D01*
X144031399Y-112273288D01*
X144120537Y-112251806D01*
X144131832Y-112247917D01*
X144313382Y-112165371D01*
X144323724Y-112159424D01*
X144486397Y-112044032D01*
X144495425Y-112036239D01*
X144633342Y-111892169D01*
X144640738Y-111882804D01*
X144748921Y-111715259D01*
X144754417Y-111704655D01*
X144828961Y-111519688D01*
X144832355Y-111508230D01*
X144870857Y-111311072D01*
X144871934Y-111302209D01*
X144872000Y-111299500D01*
X144872000Y-111270115D01*
X144867525Y-111254876D01*
X144866135Y-111253671D01*
X144858452Y-111252000D01*
X144036115Y-111252000D01*
X144020876Y-111256475D01*
X144019671Y-111257865D01*
X144018000Y-111265548D01*
X144018000Y-112258402D01*
X143510000Y-112258402D01*
X143510000Y-111270115D01*
X143505525Y-111254876D01*
X143504135Y-111253671D01*
X143496452Y-111252000D01*
X142674227Y-111252000D01*
X142659750Y-111256251D01*
X142657687Y-111268512D01*
X129540000Y-111268512D01*
X129540000Y-109693469D01*
X131429095Y-109693469D01*
X131429392Y-109698622D01*
X131429392Y-109698625D01*
X131435067Y-109797041D01*
X131442427Y-109924697D01*
X131443564Y-109929743D01*
X131443565Y-109929749D01*
X131467317Y-110035143D01*
X131493346Y-110150642D01*
X131495288Y-110155424D01*
X131495289Y-110155428D01*
X131578540Y-110360450D01*
X131580484Y-110365237D01*
X131701501Y-110562719D01*
X131853147Y-110737784D01*
X132031349Y-110885730D01*
X132231322Y-111002584D01*
X132447694Y-111085209D01*
X132452760Y-111086240D01*
X132452761Y-111086240D01*
X132505846Y-111097040D01*
X132674656Y-111131385D01*
X132805324Y-111136176D01*
X132900949Y-111139683D01*
X132900953Y-111139683D01*
X132906113Y-111139872D01*
X132911233Y-111139216D01*
X132911235Y-111139216D01*
X132984270Y-111129860D01*
X133135847Y-111110442D01*
X133140795Y-111108957D01*
X133140802Y-111108956D01*
X133352747Y-111045369D01*
X133357690Y-111043886D01*
X133438236Y-111004427D01*
X133561049Y-110944262D01*
X133561052Y-110944260D01*
X133565684Y-110941991D01*
X133754243Y-110807494D01*
X133836137Y-110725885D01*
X142656000Y-110725885D01*
X142660475Y-110741124D01*
X142661865Y-110742329D01*
X142669548Y-110744000D01*
X143491885Y-110744000D01*
X143507124Y-110739525D01*
X143508329Y-110738135D01*
X143510000Y-110730452D01*
X143510000Y-110725885D01*
X144018000Y-110725885D01*
X144022475Y-110741124D01*
X144023865Y-110742329D01*
X144031548Y-110744000D01*
X144853773Y-110744000D01*
X144868250Y-110739749D01*
X144870313Y-110727488D01*
X144857529Y-110593506D01*
X144855270Y-110581772D01*
X144799128Y-110390401D01*
X144794698Y-110379325D01*
X144703381Y-110202022D01*
X144696931Y-110191976D01*
X144573738Y-110035143D01*
X144565501Y-110026494D01*
X144414877Y-109895788D01*
X144405153Y-109888853D01*
X144232533Y-109788990D01*
X144221669Y-109784016D01*
X144033273Y-109718593D01*
X144032284Y-109718352D01*
X144021992Y-109719820D01*
X144018000Y-109733385D01*
X144018000Y-110725885D01*
X143510000Y-110725885D01*
X143510000Y-109737598D01*
X143506027Y-109724067D01*
X143496601Y-109722712D01*
X143407463Y-109744194D01*
X143396168Y-109748083D01*
X143214618Y-109830629D01*
X143204276Y-109836576D01*
X143041603Y-109951968D01*
X143032575Y-109959761D01*
X142894658Y-110103831D01*
X142887262Y-110113196D01*
X142779079Y-110280741D01*
X142773583Y-110291345D01*
X142699039Y-110476312D01*
X142695645Y-110487770D01*
X142657143Y-110684928D01*
X142656066Y-110693791D01*
X142656000Y-110696500D01*
X142656000Y-110725885D01*
X133836137Y-110725885D01*
X133918303Y-110644005D01*
X134053458Y-110455917D01*
X134100641Y-110360450D01*
X134153784Y-110252922D01*
X134153785Y-110252920D01*
X134156078Y-110248280D01*
X134223408Y-110026671D01*
X134253640Y-109797041D01*
X134254836Y-109748083D01*
X134255245Y-109731365D01*
X134255245Y-109731361D01*
X134255327Y-109728000D01*
X134249032Y-109651434D01*
X134236773Y-109502318D01*
X134236772Y-109502312D01*
X134236349Y-109497167D01*
X134179925Y-109272533D01*
X134177866Y-109267797D01*
X134089630Y-109064868D01*
X134089628Y-109064865D01*
X134087570Y-109060131D01*
X133961764Y-108865665D01*
X133805887Y-108694358D01*
X133801836Y-108691159D01*
X133801832Y-108691155D01*
X133628177Y-108554011D01*
X133628172Y-108554008D01*
X133624123Y-108550810D01*
X133619607Y-108548317D01*
X133619604Y-108548315D01*
X133425879Y-108441373D01*
X133425875Y-108441371D01*
X133421355Y-108438876D01*
X133416486Y-108437152D01*
X133416482Y-108437150D01*
X133207903Y-108363288D01*
X133207899Y-108363287D01*
X133203028Y-108361562D01*
X133197935Y-108360655D01*
X133197932Y-108360654D01*
X132980095Y-108321851D01*
X132980089Y-108321850D01*
X132975006Y-108320945D01*
X132902096Y-108320054D01*
X132748581Y-108318179D01*
X132748579Y-108318179D01*
X132743411Y-108318116D01*
X132514464Y-108353150D01*
X132294314Y-108425106D01*
X132289726Y-108427494D01*
X132289722Y-108427496D01*
X132263065Y-108441373D01*
X132088872Y-108532052D01*
X132084739Y-108535155D01*
X132084736Y-108535157D01*
X132059625Y-108554011D01*
X131903655Y-108671117D01*
X131743639Y-108838564D01*
X131740725Y-108842836D01*
X131740724Y-108842837D01*
X131725152Y-108865665D01*
X131613119Y-109029899D01*
X131515602Y-109239981D01*
X131453707Y-109463169D01*
X131429095Y-109693469D01*
X129540000Y-109693469D01*
X129540000Y-104266000D01*
X129560002Y-104197879D01*
X129613658Y-104151386D01*
X129666000Y-104140000D01*
X148464000Y-104140000D01*
X148532121Y-104160002D01*
G37*
%TD.AperFunction*%
%TD*%
%TA.AperFunction,Conductor*%
%TO.N,GND*%
G36*
X203142121Y-104160002D02*
G01*
X203188614Y-104213658D01*
X203200000Y-104266000D01*
X203200000Y-130684000D01*
X203179998Y-130752121D01*
X203126342Y-130798614D01*
X203074000Y-130810000D01*
X143382000Y-130810000D01*
X143313879Y-130789998D01*
X143267386Y-130736342D01*
X143256000Y-130684000D01*
X143256000Y-128236695D01*
X149254251Y-128236695D01*
X149267110Y-128459715D01*
X149268247Y-128464761D01*
X149268248Y-128464767D01*
X149289275Y-128558069D01*
X149316222Y-128677639D01*
X149400266Y-128884616D01*
X149437685Y-128945678D01*
X149514291Y-129070688D01*
X149516987Y-129075088D01*
X149663250Y-129243938D01*
X149835126Y-129386632D01*
X150028000Y-129499338D01*
X150236692Y-129579030D01*
X150241760Y-129580061D01*
X150241763Y-129580062D01*
X150336862Y-129599410D01*
X150455597Y-129623567D01*
X150460772Y-129623757D01*
X150460774Y-129623757D01*
X150673673Y-129631564D01*
X150673677Y-129631564D01*
X150678837Y-129631753D01*
X150683957Y-129631097D01*
X150683959Y-129631097D01*
X150895288Y-129604025D01*
X150895289Y-129604025D01*
X150900416Y-129603368D01*
X150905366Y-129601883D01*
X151109429Y-129540661D01*
X151109434Y-129540659D01*
X151114384Y-129539174D01*
X151314994Y-129440896D01*
X151496860Y-129311173D01*
X151655096Y-129153489D01*
X151714594Y-129070689D01*
X151785453Y-128972077D01*
X151786640Y-128972930D01*
X151833960Y-128929362D01*
X151903897Y-128917145D01*
X151969338Y-128944678D01*
X151997166Y-128976511D01*
X152054694Y-129070388D01*
X152060777Y-129078699D01*
X152200213Y-129239667D01*
X152207580Y-129246883D01*
X152371434Y-129382916D01*
X152379881Y-129388831D01*
X152563756Y-129496279D01*
X152573042Y-129500729D01*
X152772001Y-129576703D01*
X152781899Y-129579579D01*
X152885250Y-129600606D01*
X152899299Y-129599410D01*
X152903000Y-129589065D01*
X152903000Y-126953102D01*
X152899082Y-126939758D01*
X152884806Y-126937771D01*
X152846324Y-126943660D01*
X152836288Y-126946051D01*
X152633868Y-127012212D01*
X152624359Y-127016209D01*
X152435463Y-127114542D01*
X152426738Y-127120036D01*
X152256433Y-127247905D01*
X152248726Y-127254748D01*
X152101590Y-127408717D01*
X152095109Y-127416722D01*
X151990498Y-127570074D01*
X151935587Y-127615076D01*
X151865062Y-127623247D01*
X151801315Y-127591993D01*
X151780618Y-127567509D01*
X151699822Y-127442617D01*
X151699820Y-127442614D01*
X151697014Y-127438277D01*
X151546670Y-127273051D01*
X151542619Y-127269852D01*
X151542615Y-127269848D01*
X151375414Y-127137800D01*
X151375410Y-127137798D01*
X151371359Y-127134598D01*
X151335028Y-127114542D01*
X151319136Y-127105769D01*
X151175789Y-127026638D01*
X151170920Y-127024914D01*
X151170916Y-127024912D01*
X150970087Y-126953795D01*
X150970083Y-126953794D01*
X150965212Y-126952069D01*
X150960119Y-126951162D01*
X150960116Y-126951161D01*
X150750373Y-126913800D01*
X150750367Y-126913799D01*
X150745284Y-126912894D01*
X150671452Y-126911992D01*
X150527081Y-126910228D01*
X150527079Y-126910228D01*
X150521911Y-126910165D01*
X150301091Y-126943955D01*
X150088756Y-127013357D01*
X149890607Y-127116507D01*
X149886474Y-127119610D01*
X149886471Y-127119612D01*
X149716100Y-127247530D01*
X149711965Y-127250635D01*
X149557629Y-127412138D01*
X149431743Y-127596680D01*
X149337688Y-127799305D01*
X149277989Y-128014570D01*
X149254251Y-128236695D01*
X143256000Y-128236695D01*
X143256000Y-126348785D01*
X143979500Y-126348785D01*
X143986255Y-126410967D01*
X144037385Y-126547356D01*
X144124739Y-126663912D01*
X144241295Y-126751266D01*
X144377684Y-126802396D01*
X144439866Y-126809151D01*
X146136134Y-126809151D01*
X146198316Y-126802396D01*
X146334705Y-126751266D01*
X146451261Y-126663912D01*
X146538615Y-126547356D01*
X146589745Y-126410967D01*
X146596500Y-126348785D01*
X146596500Y-124652517D01*
X146589745Y-124590335D01*
X146538615Y-124453946D01*
X146451261Y-124337390D01*
X146334705Y-124250036D01*
X146198316Y-124198906D01*
X146136134Y-124192151D01*
X144439866Y-124192151D01*
X144377684Y-124198906D01*
X144241295Y-124250036D01*
X144124739Y-124337390D01*
X144037385Y-124453946D01*
X143986255Y-124590335D01*
X143979500Y-124652517D01*
X143979500Y-126348785D01*
X143256000Y-126348785D01*
X143256000Y-122786713D01*
X144566493Y-122786713D01*
X144575789Y-122798728D01*
X144626994Y-122834582D01*
X144636489Y-122840065D01*
X144833947Y-122932141D01*
X144844239Y-122935887D01*
X145054688Y-122992276D01*
X145065481Y-122994179D01*
X145282525Y-123013168D01*
X145293475Y-123013168D01*
X145510519Y-122994179D01*
X145521312Y-122992276D01*
X145731761Y-122935887D01*
X145742053Y-122932141D01*
X145939511Y-122840065D01*
X145949006Y-122834582D01*
X146001048Y-122798142D01*
X146009424Y-122787663D01*
X146002356Y-122774217D01*
X145300812Y-122072673D01*
X145286868Y-122065059D01*
X145285035Y-122065190D01*
X145278420Y-122069441D01*
X144572923Y-122774938D01*
X144566493Y-122786713D01*
X143256000Y-122786713D01*
X143256000Y-121706126D01*
X143975483Y-121706126D01*
X143994472Y-121923170D01*
X143996375Y-121933963D01*
X144052764Y-122144412D01*
X144056510Y-122154704D01*
X144148586Y-122352162D01*
X144154069Y-122361657D01*
X144190509Y-122413699D01*
X144200988Y-122422075D01*
X144214434Y-122415007D01*
X144915978Y-121713463D01*
X144922356Y-121701783D01*
X145652408Y-121701783D01*
X145652539Y-121703616D01*
X145656790Y-121710231D01*
X146362287Y-122415728D01*
X146374062Y-122422158D01*
X146386077Y-122412862D01*
X146421931Y-122361657D01*
X146427414Y-122352162D01*
X146519490Y-122154704D01*
X146523236Y-122144412D01*
X146579625Y-121933963D01*
X146581528Y-121923170D01*
X146600517Y-121706126D01*
X146600517Y-121695176D01*
X146581528Y-121478132D01*
X146579625Y-121467339D01*
X146523236Y-121256890D01*
X146519490Y-121246598D01*
X146427414Y-121049140D01*
X146421931Y-121039645D01*
X146385491Y-120987603D01*
X146375012Y-120979227D01*
X146361566Y-120986295D01*
X145660022Y-121687839D01*
X145652408Y-121701783D01*
X144922356Y-121701783D01*
X144923592Y-121699519D01*
X144923461Y-121697686D01*
X144919210Y-121691071D01*
X144213713Y-120985574D01*
X144201938Y-120979144D01*
X144189923Y-120988440D01*
X144154069Y-121039645D01*
X144148586Y-121049140D01*
X144056510Y-121246598D01*
X144052764Y-121256890D01*
X143996375Y-121467339D01*
X143994472Y-121478132D01*
X143975483Y-121695176D01*
X143975483Y-121706126D01*
X143256000Y-121706126D01*
X143256000Y-120613639D01*
X144566576Y-120613639D01*
X144573644Y-120627085D01*
X145275188Y-121328629D01*
X145289132Y-121336243D01*
X145290965Y-121336112D01*
X145297580Y-121331861D01*
X146003077Y-120626364D01*
X146009507Y-120614589D01*
X146000211Y-120602574D01*
X145949006Y-120566720D01*
X145939511Y-120561237D01*
X145742053Y-120469161D01*
X145731761Y-120465415D01*
X145521312Y-120409026D01*
X145510519Y-120407123D01*
X145293475Y-120388134D01*
X145282525Y-120388134D01*
X145065481Y-120407123D01*
X145054688Y-120409026D01*
X144844239Y-120465415D01*
X144833947Y-120469161D01*
X144636489Y-120561237D01*
X144626994Y-120566720D01*
X144574952Y-120603160D01*
X144566576Y-120613639D01*
X143256000Y-120613639D01*
X143256000Y-119760000D01*
X143276002Y-119691879D01*
X143329658Y-119645386D01*
X143382000Y-119634000D01*
X150259129Y-119634000D01*
X150327250Y-119654002D01*
X150348224Y-119670905D01*
X154901595Y-124224275D01*
X154935621Y-124286587D01*
X154938500Y-124313370D01*
X154938500Y-127077655D01*
X154918498Y-127145776D01*
X154888153Y-127178415D01*
X154883774Y-127181703D01*
X154791965Y-127250635D01*
X154637629Y-127412138D01*
X154530204Y-127569618D01*
X154529898Y-127570066D01*
X154474987Y-127615069D01*
X154404462Y-127623240D01*
X154340715Y-127591986D01*
X154320018Y-127567502D01*
X154239426Y-127442926D01*
X154233136Y-127434757D01*
X154089806Y-127277240D01*
X154082273Y-127270215D01*
X153915139Y-127138222D01*
X153906552Y-127132517D01*
X153720117Y-127029599D01*
X153710705Y-127025369D01*
X153509959Y-126954280D01*
X153499988Y-126951646D01*
X153428837Y-126938972D01*
X153415540Y-126940432D01*
X153411000Y-126954989D01*
X153411000Y-129588517D01*
X153415064Y-129602359D01*
X153428478Y-129604393D01*
X153435184Y-129603534D01*
X153445262Y-129601392D01*
X153649255Y-129540191D01*
X153658842Y-129536433D01*
X153850095Y-129442739D01*
X153858945Y-129437464D01*
X154032328Y-129313792D01*
X154040200Y-129307139D01*
X154191052Y-129156812D01*
X154197730Y-129148965D01*
X154325022Y-128971819D01*
X154326279Y-128972722D01*
X154373373Y-128929362D01*
X154443311Y-128917145D01*
X154508751Y-128944678D01*
X154536579Y-128976511D01*
X154596987Y-129075088D01*
X154743250Y-129243938D01*
X154915126Y-129386632D01*
X155108000Y-129499338D01*
X155316692Y-129579030D01*
X155321760Y-129580061D01*
X155321763Y-129580062D01*
X155416862Y-129599410D01*
X155535597Y-129623567D01*
X155540772Y-129623757D01*
X155540774Y-129623757D01*
X155753673Y-129631564D01*
X155753677Y-129631564D01*
X155758837Y-129631753D01*
X155763957Y-129631097D01*
X155763959Y-129631097D01*
X155975288Y-129604025D01*
X155975289Y-129604025D01*
X155980416Y-129603368D01*
X155985366Y-129601883D01*
X156189429Y-129540661D01*
X156189434Y-129540659D01*
X156194384Y-129539174D01*
X156394994Y-129440896D01*
X156576860Y-129311173D01*
X156735096Y-129153489D01*
X156794594Y-129070689D01*
X156865453Y-128972077D01*
X156866776Y-128973028D01*
X156913645Y-128929857D01*
X156983580Y-128917625D01*
X157049026Y-128945144D01*
X157076875Y-128976994D01*
X157136987Y-129075088D01*
X157283250Y-129243938D01*
X157455126Y-129386632D01*
X157648000Y-129499338D01*
X157856692Y-129579030D01*
X157861760Y-129580061D01*
X157861763Y-129580062D01*
X157956862Y-129599410D01*
X158075597Y-129623567D01*
X158080772Y-129623757D01*
X158080774Y-129623757D01*
X158293673Y-129631564D01*
X158293677Y-129631564D01*
X158298837Y-129631753D01*
X158303957Y-129631097D01*
X158303959Y-129631097D01*
X158515288Y-129604025D01*
X158515289Y-129604025D01*
X158520416Y-129603368D01*
X158525366Y-129601883D01*
X158729429Y-129540661D01*
X158729434Y-129540659D01*
X158734384Y-129539174D01*
X158934994Y-129440896D01*
X159116860Y-129311173D01*
X159225091Y-129203319D01*
X159287462Y-129169404D01*
X159358268Y-129174592D01*
X159415030Y-129217238D01*
X159432012Y-129248341D01*
X159476385Y-129366705D01*
X159563739Y-129483261D01*
X159680295Y-129570615D01*
X159816684Y-129621745D01*
X159878866Y-129628500D01*
X161675134Y-129628500D01*
X161737316Y-129621745D01*
X161873705Y-129570615D01*
X161990261Y-129483261D01*
X162077615Y-129366705D01*
X162128745Y-129230316D01*
X162135500Y-129168134D01*
X162135500Y-127371866D01*
X162128745Y-127309684D01*
X162077615Y-127173295D01*
X161990261Y-127056739D01*
X161873705Y-126969385D01*
X161737316Y-126918255D01*
X161675134Y-126911500D01*
X160972371Y-126911500D01*
X160904250Y-126891498D01*
X160871874Y-126854134D01*
X164007500Y-126854134D01*
X164014255Y-126916316D01*
X164065385Y-127052705D01*
X164152739Y-127169261D01*
X164269295Y-127256615D01*
X164405684Y-127307745D01*
X164467866Y-127314500D01*
X167764134Y-127314500D01*
X167826316Y-127307745D01*
X167962705Y-127256615D01*
X168079261Y-127169261D01*
X168166615Y-127052705D01*
X168217745Y-126916316D01*
X168224500Y-126854134D01*
X168224500Y-123557866D01*
X168217745Y-123495684D01*
X168166615Y-123359295D01*
X168079261Y-123242739D01*
X167962705Y-123155385D01*
X167826316Y-123104255D01*
X167764134Y-123097500D01*
X164467866Y-123097500D01*
X164405684Y-123104255D01*
X164269295Y-123155385D01*
X164152739Y-123242739D01*
X164065385Y-123359295D01*
X164014255Y-123495684D01*
X164007500Y-123557866D01*
X164007500Y-126854134D01*
X160871874Y-126854134D01*
X160857757Y-126837842D01*
X160847653Y-126767568D01*
X160877147Y-126702988D01*
X160883276Y-126696405D01*
X161524911Y-126054770D01*
X161539323Y-126042384D01*
X161550918Y-126033851D01*
X161550923Y-126033846D01*
X161556818Y-126029508D01*
X161561557Y-126023930D01*
X161561560Y-126023927D01*
X161591035Y-125989232D01*
X161597965Y-125981716D01*
X161603661Y-125976020D01*
X161605924Y-125973159D01*
X161605929Y-125973154D01*
X161621293Y-125953734D01*
X161624082Y-125950333D01*
X161625743Y-125948378D01*
X161671333Y-125894715D01*
X161674659Y-125888202D01*
X161678020Y-125883163D01*
X161681196Y-125878021D01*
X161685734Y-125872284D01*
X161716655Y-125806125D01*
X161718561Y-125802225D01*
X161751769Y-125737192D01*
X161753508Y-125730083D01*
X161755604Y-125724449D01*
X161757523Y-125718679D01*
X161760622Y-125712050D01*
X161775491Y-125640565D01*
X161776461Y-125636282D01*
X161792473Y-125570844D01*
X161793808Y-125565390D01*
X161794500Y-125554236D01*
X161794535Y-125554238D01*
X161794775Y-125550266D01*
X161795152Y-125546045D01*
X161796641Y-125538885D01*
X161794546Y-125461458D01*
X161794500Y-125458050D01*
X161794500Y-122964999D01*
X161811381Y-122901999D01*
X161867223Y-122805279D01*
X161867224Y-122805278D01*
X161870527Y-122799556D01*
X161929542Y-122617928D01*
X161949504Y-122428000D01*
X161929542Y-122238072D01*
X161870527Y-122056444D01*
X161811381Y-121954000D01*
X161794500Y-121891001D01*
X161794500Y-120209070D01*
X161795933Y-120190120D01*
X161798099Y-120175885D01*
X161798099Y-120175881D01*
X161799199Y-120168651D01*
X161794915Y-120115982D01*
X161794500Y-120105767D01*
X161794500Y-120097707D01*
X161791209Y-120069480D01*
X161790778Y-120065121D01*
X161785453Y-119999660D01*
X161784860Y-119992364D01*
X161782605Y-119985403D01*
X161781418Y-119979463D01*
X161780029Y-119973588D01*
X161779182Y-119966319D01*
X161754264Y-119897670D01*
X161752847Y-119893542D01*
X161732607Y-119831064D01*
X161732606Y-119831062D01*
X161730351Y-119824101D01*
X161726555Y-119817846D01*
X161724049Y-119812372D01*
X161721330Y-119806942D01*
X161718833Y-119800063D01*
X161714820Y-119793942D01*
X161678814Y-119739024D01*
X161676467Y-119735305D01*
X161638595Y-119672893D01*
X161631197Y-119664516D01*
X161631224Y-119664492D01*
X161628571Y-119661500D01*
X161625868Y-119658267D01*
X161621856Y-119652148D01*
X161565617Y-119598872D01*
X161563175Y-119596494D01*
X157555770Y-115589089D01*
X157543384Y-115574677D01*
X157534851Y-115563082D01*
X157534846Y-115563077D01*
X157530508Y-115557182D01*
X157524930Y-115552443D01*
X157524927Y-115552440D01*
X157490232Y-115522965D01*
X157482716Y-115516035D01*
X157477021Y-115510340D01*
X157470880Y-115505482D01*
X157454749Y-115492719D01*
X157451345Y-115489928D01*
X157401297Y-115447409D01*
X157401295Y-115447408D01*
X157395715Y-115442667D01*
X157389199Y-115439339D01*
X157384150Y-115435972D01*
X157379021Y-115432805D01*
X157373284Y-115428266D01*
X157307125Y-115397345D01*
X157303225Y-115395439D01*
X157238192Y-115362231D01*
X157231084Y-115360492D01*
X157225441Y-115358393D01*
X157219678Y-115356476D01*
X157213050Y-115353378D01*
X157141583Y-115338513D01*
X157137299Y-115337543D01*
X157066390Y-115320192D01*
X157060788Y-115319844D01*
X157060785Y-115319844D01*
X157055236Y-115319500D01*
X157055238Y-115319464D01*
X157051245Y-115319225D01*
X157047053Y-115318851D01*
X157039885Y-115317360D01*
X156973675Y-115319151D01*
X156962479Y-115319454D01*
X156959072Y-115319500D01*
X150748000Y-115319500D01*
X150679879Y-115299498D01*
X150633386Y-115245842D01*
X150622000Y-115193500D01*
X150622000Y-114410785D01*
X194271500Y-114410785D01*
X194278255Y-114472967D01*
X194329385Y-114609356D01*
X194416739Y-114725912D01*
X194533295Y-114813266D01*
X194669684Y-114864396D01*
X194731866Y-114871151D01*
X196428134Y-114871151D01*
X196490316Y-114864396D01*
X196626705Y-114813266D01*
X196743261Y-114725912D01*
X196830615Y-114609356D01*
X196881745Y-114472967D01*
X196888500Y-114410785D01*
X196888500Y-112714517D01*
X196881745Y-112652335D01*
X196830615Y-112515946D01*
X196743261Y-112399390D01*
X196626705Y-112312036D01*
X196490316Y-112260906D01*
X196428134Y-112254151D01*
X194731866Y-112254151D01*
X194669684Y-112260906D01*
X194533295Y-112312036D01*
X194416739Y-112399390D01*
X194329385Y-112515946D01*
X194278255Y-112652335D01*
X194271500Y-112714517D01*
X194271500Y-114410785D01*
X150622000Y-114410785D01*
X150622000Y-110848713D01*
X194858493Y-110848713D01*
X194867789Y-110860728D01*
X194918994Y-110896582D01*
X194928489Y-110902065D01*
X195125947Y-110994141D01*
X195136239Y-110997887D01*
X195346688Y-111054276D01*
X195357481Y-111056179D01*
X195574525Y-111075168D01*
X195585475Y-111075168D01*
X195802519Y-111056179D01*
X195813312Y-111054276D01*
X196023761Y-110997887D01*
X196034053Y-110994141D01*
X196231511Y-110902065D01*
X196241006Y-110896582D01*
X196293048Y-110860142D01*
X196301424Y-110849663D01*
X196294356Y-110836217D01*
X195592812Y-110134673D01*
X195578868Y-110127059D01*
X195577035Y-110127190D01*
X195570420Y-110131441D01*
X194864923Y-110836938D01*
X194858493Y-110848713D01*
X150622000Y-110848713D01*
X150622000Y-108233429D01*
X164020359Y-108233429D01*
X164020562Y-108235034D01*
X164074246Y-108508664D01*
X164076457Y-108516916D01*
X164166782Y-108780736D01*
X164170097Y-108788621D01*
X164295389Y-109037736D01*
X164299745Y-109045102D01*
X164457687Y-109274907D01*
X164462995Y-109281605D01*
X164650670Y-109487858D01*
X164656841Y-109493775D01*
X164870761Y-109672641D01*
X164877693Y-109677676D01*
X165113895Y-109825846D01*
X165121446Y-109829895D01*
X165375581Y-109944640D01*
X165383612Y-109947627D01*
X165650967Y-110026822D01*
X165659318Y-110028689D01*
X165844090Y-110056962D01*
X165857877Y-110055107D01*
X165862000Y-110041298D01*
X165862000Y-110040560D01*
X166370000Y-110040560D01*
X166374105Y-110054542D01*
X166387271Y-110056585D01*
X166507658Y-110042016D01*
X166516075Y-110040411D01*
X166785786Y-109969654D01*
X166793902Y-109966923D01*
X167051521Y-109860213D01*
X167059183Y-109856410D01*
X167210263Y-109768126D01*
X194267483Y-109768126D01*
X194286472Y-109985170D01*
X194288375Y-109995963D01*
X194344764Y-110206412D01*
X194348510Y-110216704D01*
X194440586Y-110414162D01*
X194446069Y-110423657D01*
X194482509Y-110475699D01*
X194492988Y-110484075D01*
X194506434Y-110477007D01*
X195207978Y-109775463D01*
X195214356Y-109763783D01*
X195944408Y-109763783D01*
X195944539Y-109765616D01*
X195948790Y-109772231D01*
X196654287Y-110477728D01*
X196666062Y-110484158D01*
X196678077Y-110474862D01*
X196713931Y-110423657D01*
X196719414Y-110414162D01*
X196811490Y-110216704D01*
X196815236Y-110206412D01*
X196871625Y-109995963D01*
X196873528Y-109985170D01*
X196892517Y-109768126D01*
X196892517Y-109757176D01*
X196873528Y-109540132D01*
X196871625Y-109529339D01*
X196815236Y-109318890D01*
X196811490Y-109308598D01*
X196719414Y-109111140D01*
X196713931Y-109101645D01*
X196677491Y-109049603D01*
X196667012Y-109041227D01*
X196653566Y-109048295D01*
X195952022Y-109749839D01*
X195944408Y-109763783D01*
X195214356Y-109763783D01*
X195215592Y-109761519D01*
X195215461Y-109759686D01*
X195211210Y-109753071D01*
X194505713Y-109047574D01*
X194493938Y-109041144D01*
X194481923Y-109050440D01*
X194446069Y-109101645D01*
X194440586Y-109111140D01*
X194348510Y-109308598D01*
X194344764Y-109318890D01*
X194288375Y-109529339D01*
X194286472Y-109540132D01*
X194267483Y-109757176D01*
X194267483Y-109768126D01*
X167210263Y-109768126D01*
X167299943Y-109715721D01*
X167307008Y-109710920D01*
X167526451Y-109538854D01*
X167532807Y-109533131D01*
X167726861Y-109332882D01*
X167732381Y-109326351D01*
X167897464Y-109101617D01*
X167902048Y-109094393D01*
X168035099Y-108849346D01*
X168038667Y-108841553D01*
X168101361Y-108675639D01*
X194858576Y-108675639D01*
X194865644Y-108689085D01*
X195567188Y-109390629D01*
X195581132Y-109398243D01*
X195582965Y-109398112D01*
X195589580Y-109393861D01*
X196295077Y-108688364D01*
X196301507Y-108676589D01*
X196292211Y-108664574D01*
X196241006Y-108628720D01*
X196231511Y-108623237D01*
X196034053Y-108531161D01*
X196023761Y-108527415D01*
X195813312Y-108471026D01*
X195802519Y-108469123D01*
X195585475Y-108450134D01*
X195574525Y-108450134D01*
X195357481Y-108469123D01*
X195346688Y-108471026D01*
X195136239Y-108527415D01*
X195125947Y-108531161D01*
X194928489Y-108623237D01*
X194918994Y-108628720D01*
X194866952Y-108665160D01*
X194858576Y-108675639D01*
X168101361Y-108675639D01*
X168137227Y-108580721D01*
X168139704Y-108572515D01*
X168201953Y-108300720D01*
X168203294Y-108292257D01*
X168208132Y-108238044D01*
X168205161Y-108223125D01*
X168193354Y-108220000D01*
X166388115Y-108220000D01*
X166372876Y-108224475D01*
X166371671Y-108225865D01*
X166370000Y-108233548D01*
X166370000Y-110040560D01*
X165862000Y-110040560D01*
X165862000Y-108238115D01*
X165857525Y-108222876D01*
X165856135Y-108221671D01*
X165848452Y-108220000D01*
X164037226Y-108220000D01*
X164022041Y-108224459D01*
X164020359Y-108233429D01*
X150622000Y-108233429D01*
X150622000Y-107693942D01*
X164022860Y-107693942D01*
X164026030Y-107709031D01*
X164037493Y-107712000D01*
X165843885Y-107712000D01*
X165859124Y-107707525D01*
X165860329Y-107706135D01*
X165862000Y-107698452D01*
X165862000Y-107693885D01*
X166370000Y-107693885D01*
X166374475Y-107709124D01*
X166375865Y-107710329D01*
X166383548Y-107712000D01*
X168193495Y-107712000D01*
X168208486Y-107707598D01*
X168210541Y-107696315D01*
X168209669Y-107683519D01*
X168208508Y-107675047D01*
X168151962Y-107401998D01*
X168149658Y-107393744D01*
X168056579Y-107130897D01*
X168053183Y-107123049D01*
X167925286Y-106875254D01*
X167920858Y-106867942D01*
X167760515Y-106639798D01*
X167755133Y-106633152D01*
X167565318Y-106428886D01*
X167559078Y-106423027D01*
X167343296Y-106246411D01*
X167336324Y-106241456D01*
X167098560Y-106095754D01*
X167090990Y-106091796D01*
X166835657Y-105979714D01*
X166827597Y-105976812D01*
X166559432Y-105900424D01*
X166551054Y-105898642D01*
X166387935Y-105875427D01*
X166373949Y-105877458D01*
X166370000Y-105890943D01*
X166370000Y-107693885D01*
X165862000Y-107693885D01*
X165862000Y-105891332D01*
X165857956Y-105877561D01*
X165844417Y-105875532D01*
X165702621Y-105894200D01*
X165694223Y-105895893D01*
X165425274Y-105969469D01*
X165417179Y-105972288D01*
X165160694Y-106081688D01*
X165153071Y-106085572D01*
X164913806Y-106228768D01*
X164906777Y-106233653D01*
X164689153Y-106408004D01*
X164682864Y-106413787D01*
X164490913Y-106616061D01*
X164485460Y-106622654D01*
X164322747Y-106849092D01*
X164318230Y-106856377D01*
X164187757Y-107102799D01*
X164184271Y-107110627D01*
X164088446Y-107372481D01*
X164086057Y-107380704D01*
X164026654Y-107653151D01*
X164025405Y-107661607D01*
X164022860Y-107693942D01*
X150622000Y-107693942D01*
X150622000Y-104266000D01*
X150642002Y-104197879D01*
X150695658Y-104151386D01*
X150748000Y-104140000D01*
X203074000Y-104140000D01*
X203142121Y-104160002D01*
G37*
%TD.AperFunction*%
%TD*%
M02*
