%TF.GenerationSoftware,KiCad,Pcbnew,6.0.2+dfsg-1*%
%TF.CreationDate,2025-02-13T14:12:05+01:00*%
%TF.ProjectId,LM259610,4c4d3235-3936-4313-902e-6b696361645f,rev?*%
%TF.SameCoordinates,Original*%
%TF.FileFunction,Legend,Top*%
%TF.FilePolarity,Positive*%
%FSLAX46Y46*%
G04 Gerber Fmt 4.6, Leading zero omitted, Abs format (unit mm)*
G04 Created by KiCad (PCBNEW 6.0.2+dfsg-1) date 2025-02-13 14:12:05*
%MOMM*%
%LPD*%
G01*
G04 APERTURE LIST*
%ADD10C,0.100000*%
%ADD11C,0.150000*%
%ADD12C,0.120000*%
G04 APERTURE END LIST*
D10*
X149369428Y-116654285D02*
X149083714Y-116854285D01*
X149369428Y-116997142D02*
X148769428Y-116997142D01*
X148769428Y-116768571D01*
X148798000Y-116711428D01*
X148826571Y-116682857D01*
X148883714Y-116654285D01*
X148969428Y-116654285D01*
X149026571Y-116682857D01*
X149055142Y-116711428D01*
X149083714Y-116768571D01*
X149083714Y-116997142D01*
X160629619Y-129863904D02*
X160248666Y-129863904D01*
X160210571Y-130244857D01*
X160248666Y-130206761D01*
X160324857Y-130168666D01*
X160515333Y-130168666D01*
X160591523Y-130206761D01*
X160629619Y-130244857D01*
X160667714Y-130321047D01*
X160667714Y-130511523D01*
X160629619Y-130587714D01*
X160591523Y-130625809D01*
X160515333Y-130663904D01*
X160324857Y-130663904D01*
X160248666Y-130625809D01*
X160210571Y-130587714D01*
X160896285Y-129863904D02*
X161162952Y-130663904D01*
X161429619Y-129863904D01*
X157289619Y-129863904D02*
X157556285Y-130663904D01*
X157822952Y-129863904D01*
X158432476Y-130625809D02*
X158356285Y-130663904D01*
X158203904Y-130663904D01*
X158127714Y-130625809D01*
X158089619Y-130587714D01*
X158051523Y-130511523D01*
X158051523Y-130282952D01*
X158089619Y-130206761D01*
X158127714Y-130168666D01*
X158203904Y-130130571D01*
X158356285Y-130130571D01*
X158432476Y-130168666D01*
X159080095Y-130625809D02*
X159003904Y-130663904D01*
X158851523Y-130663904D01*
X158775333Y-130625809D01*
X158737238Y-130549619D01*
X158737238Y-130244857D01*
X158775333Y-130168666D01*
X158851523Y-130130571D01*
X159003904Y-130130571D01*
X159080095Y-130168666D01*
X159118190Y-130244857D01*
X159118190Y-130321047D01*
X158737238Y-130397238D01*
D11*
X149248761Y-119411619D02*
X149296380Y-119268761D01*
X149296380Y-119030666D01*
X149248761Y-118935428D01*
X149201142Y-118887809D01*
X149105904Y-118840190D01*
X149010666Y-118840190D01*
X148915428Y-118887809D01*
X148867809Y-118935428D01*
X148820190Y-119030666D01*
X148772571Y-119221142D01*
X148724952Y-119316380D01*
X148677333Y-119364000D01*
X148582095Y-119411619D01*
X148486857Y-119411619D01*
X148391619Y-119364000D01*
X148344000Y-119316380D01*
X148296380Y-119221142D01*
X148296380Y-118983047D01*
X148344000Y-118840190D01*
X149296380Y-118411619D02*
X148629714Y-118411619D01*
X148296380Y-118411619D02*
X148344000Y-118459238D01*
X148391619Y-118411619D01*
X148344000Y-118364000D01*
X148296380Y-118411619D01*
X148391619Y-118411619D01*
X148296380Y-117744952D02*
X148296380Y-117554476D01*
X148344000Y-117459238D01*
X148439238Y-117364000D01*
X148629714Y-117316380D01*
X148963047Y-117316380D01*
X149153523Y-117364000D01*
X149248761Y-117459238D01*
X149296380Y-117554476D01*
X149296380Y-117744952D01*
X149248761Y-117840190D01*
X149153523Y-117935428D01*
X148963047Y-117983047D01*
X148629714Y-117983047D01*
X148439238Y-117935428D01*
X148344000Y-117840190D01*
X148296380Y-117744952D01*
D10*
X149802952Y-129863904D02*
X150069619Y-130663904D01*
X150336285Y-129863904D01*
X150602952Y-130663904D02*
X150602952Y-130130571D01*
X150602952Y-129863904D02*
X150564857Y-129902000D01*
X150602952Y-129940095D01*
X150641047Y-129902000D01*
X150602952Y-129863904D01*
X150602952Y-129940095D01*
X150983904Y-130130571D02*
X150983904Y-130663904D01*
X150983904Y-130206761D02*
X151022000Y-130168666D01*
X151098190Y-130130571D01*
X151212476Y-130130571D01*
X151288666Y-130168666D01*
X151326761Y-130244857D01*
X151326761Y-130663904D01*
X154730571Y-129863904D02*
X154997238Y-130663904D01*
X155263904Y-129863904D01*
X155530571Y-130663904D02*
X155530571Y-129863904D01*
X155530571Y-130168666D02*
X155606761Y-130130571D01*
X155759142Y-130130571D01*
X155835333Y-130168666D01*
X155873428Y-130206761D01*
X155911523Y-130282952D01*
X155911523Y-130511523D01*
X155873428Y-130587714D01*
X155835333Y-130625809D01*
X155759142Y-130663904D01*
X155606761Y-130663904D01*
X155530571Y-130625809D01*
X156559142Y-130625809D02*
X156482952Y-130663904D01*
X156330571Y-130663904D01*
X156254380Y-130625809D01*
X156216285Y-130549619D01*
X156216285Y-130244857D01*
X156254380Y-130168666D01*
X156330571Y-130130571D01*
X156482952Y-130130571D01*
X156559142Y-130168666D01*
X156597238Y-130244857D01*
X156597238Y-130321047D01*
X156216285Y-130397238D01*
X152552476Y-129902000D02*
X152476285Y-129863904D01*
X152362000Y-129863904D01*
X152247714Y-129902000D01*
X152171523Y-129978190D01*
X152133428Y-130054380D01*
X152095333Y-130206761D01*
X152095333Y-130321047D01*
X152133428Y-130473428D01*
X152171523Y-130549619D01*
X152247714Y-130625809D01*
X152362000Y-130663904D01*
X152438190Y-130663904D01*
X152552476Y-130625809D01*
X152590571Y-130587714D01*
X152590571Y-130321047D01*
X152438190Y-130321047D01*
X152933428Y-130663904D02*
X152933428Y-129863904D01*
X153390571Y-130663904D01*
X153390571Y-129863904D01*
X153771523Y-130663904D02*
X153771523Y-129863904D01*
X153962000Y-129863904D01*
X154076285Y-129902000D01*
X154152476Y-129978190D01*
X154190571Y-130054380D01*
X154228666Y-130206761D01*
X154228666Y-130321047D01*
X154190571Y-130473428D01*
X154152476Y-130549619D01*
X154076285Y-130625809D01*
X153962000Y-130663904D01*
X153771523Y-130663904D01*
D11*
%TO.C,Q1*%
X143668761Y-108243619D02*
X143573523Y-108196000D01*
X143478285Y-108100761D01*
X143335428Y-107957904D01*
X143240190Y-107910285D01*
X143144952Y-107910285D01*
X143192571Y-108148380D02*
X143097333Y-108100761D01*
X143002095Y-108005523D01*
X142954476Y-107815047D01*
X142954476Y-107481714D01*
X143002095Y-107291238D01*
X143097333Y-107196000D01*
X143192571Y-107148380D01*
X143383047Y-107148380D01*
X143478285Y-107196000D01*
X143573523Y-107291238D01*
X143621142Y-107481714D01*
X143621142Y-107815047D01*
X143573523Y-108005523D01*
X143478285Y-108100761D01*
X143383047Y-108148380D01*
X143192571Y-108148380D01*
X144573523Y-108148380D02*
X144002095Y-108148380D01*
X144287809Y-108148380D02*
X144287809Y-107148380D01*
X144192571Y-107291238D01*
X144097333Y-107386476D01*
X144002095Y-107434095D01*
%TO.C,Cin1*%
X144430857Y-129135142D02*
X144383238Y-129182761D01*
X144240380Y-129230380D01*
X144145142Y-129230380D01*
X144002285Y-129182761D01*
X143907047Y-129087523D01*
X143859428Y-128992285D01*
X143811809Y-128801809D01*
X143811809Y-128658952D01*
X143859428Y-128468476D01*
X143907047Y-128373238D01*
X144002285Y-128278000D01*
X144145142Y-128230380D01*
X144240380Y-128230380D01*
X144383238Y-128278000D01*
X144430857Y-128325619D01*
X144859428Y-129230380D02*
X144859428Y-128563714D01*
X144859428Y-128230380D02*
X144811809Y-128278000D01*
X144859428Y-128325619D01*
X144907047Y-128278000D01*
X144859428Y-128230380D01*
X144859428Y-128325619D01*
X145335619Y-128563714D02*
X145335619Y-129230380D01*
X145335619Y-128658952D02*
X145383238Y-128611333D01*
X145478476Y-128563714D01*
X145621333Y-128563714D01*
X145716571Y-128611333D01*
X145764190Y-128706571D01*
X145764190Y-129230380D01*
X146764190Y-129230380D02*
X146192761Y-129230380D01*
X146478476Y-129230380D02*
X146478476Y-128230380D01*
X146383238Y-128373238D01*
X146288000Y-128468476D01*
X146192761Y-128516095D01*
%TO.C,Cout1*%
X201017142Y-113117142D02*
X201064761Y-113164761D01*
X201112380Y-113307619D01*
X201112380Y-113402857D01*
X201064761Y-113545714D01*
X200969523Y-113640952D01*
X200874285Y-113688571D01*
X200683809Y-113736190D01*
X200540952Y-113736190D01*
X200350476Y-113688571D01*
X200255238Y-113640952D01*
X200160000Y-113545714D01*
X200112380Y-113402857D01*
X200112380Y-113307619D01*
X200160000Y-113164761D01*
X200207619Y-113117142D01*
X201112380Y-112545714D02*
X201064761Y-112640952D01*
X201017142Y-112688571D01*
X200921904Y-112736190D01*
X200636190Y-112736190D01*
X200540952Y-112688571D01*
X200493333Y-112640952D01*
X200445714Y-112545714D01*
X200445714Y-112402857D01*
X200493333Y-112307619D01*
X200540952Y-112260000D01*
X200636190Y-112212380D01*
X200921904Y-112212380D01*
X201017142Y-112260000D01*
X201064761Y-112307619D01*
X201112380Y-112402857D01*
X201112380Y-112545714D01*
X200445714Y-111355238D02*
X201112380Y-111355238D01*
X200445714Y-111783809D02*
X200969523Y-111783809D01*
X201064761Y-111736190D01*
X201112380Y-111640952D01*
X201112380Y-111498095D01*
X201064761Y-111402857D01*
X201017142Y-111355238D01*
X200445714Y-111021904D02*
X200445714Y-110640952D01*
X200112380Y-110879047D02*
X200969523Y-110879047D01*
X201064761Y-110831428D01*
X201112380Y-110736190D01*
X201112380Y-110640952D01*
X201112380Y-109783809D02*
X201112380Y-110355238D01*
X201112380Y-110069523D02*
X200112380Y-110069523D01*
X200255238Y-110164761D01*
X200350476Y-110260000D01*
X200398095Y-110355238D01*
%TO.C,R1*%
X134453333Y-108656380D02*
X134120000Y-108180190D01*
X133881904Y-108656380D02*
X133881904Y-107656380D01*
X134262857Y-107656380D01*
X134358095Y-107704000D01*
X134405714Y-107751619D01*
X134453333Y-107846857D01*
X134453333Y-107989714D01*
X134405714Y-108084952D01*
X134358095Y-108132571D01*
X134262857Y-108180190D01*
X133881904Y-108180190D01*
X135405714Y-108656380D02*
X134834285Y-108656380D01*
X135120000Y-108656380D02*
X135120000Y-107656380D01*
X135024761Y-107799238D01*
X134929523Y-107894476D01*
X134834285Y-107942095D01*
%TO.C,D1*%
X162848380Y-117324095D02*
X161848380Y-117324095D01*
X161848380Y-117086000D01*
X161896000Y-116943142D01*
X161991238Y-116847904D01*
X162086476Y-116800285D01*
X162276952Y-116752666D01*
X162419809Y-116752666D01*
X162610285Y-116800285D01*
X162705523Y-116847904D01*
X162800761Y-116943142D01*
X162848380Y-117086000D01*
X162848380Y-117324095D01*
X162848380Y-115800285D02*
X162848380Y-116371714D01*
X162848380Y-116086000D02*
X161848380Y-116086000D01*
X161991238Y-116181238D01*
X162086476Y-116276476D01*
X162134095Y-116371714D01*
X163968380Y-124467904D02*
X162968380Y-124467904D01*
X163968380Y-123896476D02*
X163396952Y-124325047D01*
X162968380Y-123896476D02*
X163539809Y-124467904D01*
%TO.C,D2*%
X135580380Y-116816095D02*
X134580380Y-116816095D01*
X134580380Y-116578000D01*
X134628000Y-116435142D01*
X134723238Y-116339904D01*
X134818476Y-116292285D01*
X135008952Y-116244666D01*
X135151809Y-116244666D01*
X135342285Y-116292285D01*
X135437523Y-116339904D01*
X135532761Y-116435142D01*
X135580380Y-116578000D01*
X135580380Y-116816095D01*
X134675619Y-115863714D02*
X134628000Y-115816095D01*
X134580380Y-115720857D01*
X134580380Y-115482761D01*
X134628000Y-115387523D01*
X134675619Y-115339904D01*
X134770857Y-115292285D01*
X134866095Y-115292285D01*
X135008952Y-115339904D01*
X135580380Y-115911333D01*
X135580380Y-115292285D01*
X131394380Y-122689904D02*
X130394380Y-122689904D01*
X131394380Y-122118476D02*
X130822952Y-122547047D01*
X130394380Y-122118476D02*
X130965809Y-122689904D01*
%TO.C,L1*%
X180427333Y-119332380D02*
X179951142Y-119332380D01*
X179951142Y-118332380D01*
X181284476Y-119332380D02*
X180713047Y-119332380D01*
X180998761Y-119332380D02*
X180998761Y-118332380D01*
X180903523Y-118475238D01*
X180808285Y-118570476D01*
X180713047Y-118618095D01*
%TO.C,R2*%
X134453333Y-129102380D02*
X134120000Y-128626190D01*
X133881904Y-129102380D02*
X133881904Y-128102380D01*
X134262857Y-128102380D01*
X134358095Y-128150000D01*
X134405714Y-128197619D01*
X134453333Y-128292857D01*
X134453333Y-128435714D01*
X134405714Y-128530952D01*
X134358095Y-128578571D01*
X134262857Y-128626190D01*
X133881904Y-128626190D01*
X134834285Y-128197619D02*
X134881904Y-128150000D01*
X134977142Y-128102380D01*
X135215238Y-128102380D01*
X135310476Y-128150000D01*
X135358095Y-128197619D01*
X135405714Y-128292857D01*
X135405714Y-128388095D01*
X135358095Y-128530952D01*
X134786666Y-129102380D01*
X135405714Y-129102380D01*
%TO.C,J1*%
X162559380Y-128603333D02*
X163273666Y-128603333D01*
X163416523Y-128650952D01*
X163511761Y-128746190D01*
X163559380Y-128889047D01*
X163559380Y-128984285D01*
X163559380Y-127603333D02*
X163559380Y-128174761D01*
X163559380Y-127889047D02*
X162559380Y-127889047D01*
X162702238Y-127984285D01*
X162797476Y-128079523D01*
X162845095Y-128174761D01*
%TO.C,U1*%
X155175095Y-104871380D02*
X155175095Y-105680904D01*
X155222714Y-105776142D01*
X155270333Y-105823761D01*
X155365571Y-105871380D01*
X155556047Y-105871380D01*
X155651285Y-105823761D01*
X155698904Y-105776142D01*
X155746523Y-105680904D01*
X155746523Y-104871380D01*
X156746523Y-105871380D02*
X156175095Y-105871380D01*
X156460809Y-105871380D02*
X156460809Y-104871380D01*
X156365571Y-105014238D01*
X156270333Y-105109476D01*
X156175095Y-105157095D01*
%TO.C,R3*%
X139644380Y-121070666D02*
X139168190Y-121404000D01*
X139644380Y-121642095D02*
X138644380Y-121642095D01*
X138644380Y-121261142D01*
X138692000Y-121165904D01*
X138739619Y-121118285D01*
X138834857Y-121070666D01*
X138977714Y-121070666D01*
X139072952Y-121118285D01*
X139120571Y-121165904D01*
X139168190Y-121261142D01*
X139168190Y-121642095D01*
X138644380Y-120737333D02*
X138644380Y-120118285D01*
X139025333Y-120451619D01*
X139025333Y-120308761D01*
X139072952Y-120213523D01*
X139120571Y-120165904D01*
X139215809Y-120118285D01*
X139453904Y-120118285D01*
X139549142Y-120165904D01*
X139596761Y-120213523D01*
X139644380Y-120308761D01*
X139644380Y-120594476D01*
X139596761Y-120689714D01*
X139549142Y-120737333D01*
D12*
%TO.C,Q1*%
X148429856Y-109649961D02*
X147652039Y-108872144D01*
X147652039Y-108872144D02*
X146761084Y-109763098D01*
X147538902Y-110540916D02*
X148429856Y-109649961D01*
X146761371Y-109763326D02*
G75*
G03*
X147538902Y-110540916I-2997371J-3774674D01*
G01*
%TO.C,Cin1*%
X144520000Y-119559651D02*
X146056000Y-119559651D01*
X141258000Y-122960651D02*
X149318000Y-122960651D01*
X141498000Y-122079651D02*
X144248000Y-122079651D01*
X143122000Y-120119651D02*
X147454000Y-120119651D01*
X141278000Y-122839651D02*
X149298000Y-122839651D01*
X142573000Y-127610349D02*
X143373000Y-127610349D01*
X141217000Y-123320651D02*
X149359000Y-123320651D01*
X146328000Y-122439651D02*
X149202000Y-122439651D01*
X146328000Y-121479651D02*
X148781000Y-121479651D01*
X143398000Y-119959651D02*
X147178000Y-119959651D01*
X141438000Y-122239651D02*
X144248000Y-122239651D01*
X141950000Y-121239651D02*
X144248000Y-121239651D01*
X141212000Y-123400651D02*
X149364000Y-123400651D01*
X146328000Y-120999651D02*
X148444000Y-120999651D01*
X141240000Y-123080651D02*
X149336000Y-123080651D01*
X146328000Y-120679651D02*
X148155000Y-120679651D01*
X146328000Y-121959651D02*
X149028000Y-121959651D01*
X142008000Y-121159651D02*
X144248000Y-121159651D01*
X146328000Y-120839651D02*
X148307000Y-120839651D01*
X146328000Y-121239651D02*
X148626000Y-121239651D01*
X142421000Y-120679651D02*
X144248000Y-120679651D01*
X142888000Y-120279651D02*
X147688000Y-120279651D01*
X141303000Y-122719651D02*
X144248000Y-122719651D01*
X141467000Y-122159651D02*
X144248000Y-122159651D01*
X141331000Y-122599651D02*
X144248000Y-122599651D01*
X141870000Y-121359651D02*
X144248000Y-121359651D01*
X141264000Y-122920651D02*
X149312000Y-122920651D01*
X146328000Y-121439651D02*
X148757000Y-121439651D01*
X146328000Y-120879651D02*
X148343000Y-120879651D01*
X146328000Y-120959651D02*
X148412000Y-120959651D01*
X146328000Y-122559651D02*
X149235000Y-122559651D01*
X141209000Y-123480651D02*
X149367000Y-123480651D01*
X146328000Y-120759651D02*
X148233000Y-120759651D01*
X141453000Y-122199651D02*
X144248000Y-122199651D01*
X143835000Y-119759651D02*
X146741000Y-119759651D01*
X146328000Y-121039651D02*
X148477000Y-121039651D01*
X146328000Y-120799651D02*
X148271000Y-120799651D01*
X146328000Y-121759651D02*
X148935000Y-121759651D01*
X146328000Y-122239651D02*
X149138000Y-122239651D01*
X141374000Y-122439651D02*
X144248000Y-122439651D01*
X141399000Y-122359651D02*
X144248000Y-122359651D01*
X143557000Y-119879651D02*
X147019000Y-119879651D01*
X141896000Y-121319651D02*
X144248000Y-121319651D01*
X146328000Y-122319651D02*
X149165000Y-122319651D01*
X143643000Y-119839651D02*
X146933000Y-119839651D01*
X142305000Y-120799651D02*
X144248000Y-120799651D01*
X141363000Y-122479651D02*
X144248000Y-122479651D01*
X146328000Y-122119651D02*
X149093000Y-122119651D01*
X144059000Y-119679651D02*
X146517000Y-119679651D01*
X141211000Y-123440651D02*
X149365000Y-123440651D01*
X146328000Y-122519651D02*
X149224000Y-122519651D01*
X142591000Y-120519651D02*
X147985000Y-120519651D01*
X146328000Y-121199651D02*
X148597000Y-121199651D01*
X141208000Y-123600651D02*
X149368000Y-123600651D01*
X146328000Y-122199651D02*
X149123000Y-122199651D01*
X142164000Y-120959651D02*
X144248000Y-120959651D01*
X141286000Y-122799651D02*
X149290000Y-122799651D01*
X146328000Y-121319651D02*
X148680000Y-121319651D01*
X141231000Y-123160651D02*
X149345000Y-123160651D01*
X142038000Y-121119651D02*
X144248000Y-121119651D01*
X146328000Y-121879651D02*
X148992000Y-121879651D01*
X142547000Y-120559651D02*
X148029000Y-120559651D01*
X141271000Y-122879651D02*
X149305000Y-122879651D01*
X144340000Y-119599651D02*
X146236000Y-119599651D01*
X146328000Y-122159651D02*
X149109000Y-122159651D01*
X142637000Y-120479651D02*
X147939000Y-120479651D01*
X146328000Y-121599651D02*
X148850000Y-121599651D01*
X141584000Y-121879651D02*
X144248000Y-121879651D01*
X141548000Y-121959651D02*
X144248000Y-121959651D01*
X141341000Y-122559651D02*
X144248000Y-122559651D01*
X146328000Y-121839651D02*
X148974000Y-121839651D01*
X141602000Y-121839651D02*
X144248000Y-121839651D01*
X146328000Y-121399651D02*
X148732000Y-121399651D01*
X146328000Y-121639651D02*
X148872000Y-121639651D01*
X141227000Y-123200651D02*
X149349000Y-123200651D01*
X143324000Y-119999651D02*
X147252000Y-119999651D01*
X142732000Y-120399651D02*
X147844000Y-120399651D01*
X141771000Y-121519651D02*
X144248000Y-121519651D01*
X146328000Y-122079651D02*
X149078000Y-122079651D01*
X146328000Y-121359651D02*
X148706000Y-121359651D01*
X141411000Y-122319651D02*
X144248000Y-122319651D01*
X141748000Y-121559651D02*
X144248000Y-121559651D01*
X142269000Y-120839651D02*
X144248000Y-120839651D01*
X141214000Y-123360651D02*
X149362000Y-123360651D01*
X141236000Y-123120651D02*
X149340000Y-123120651D01*
X141321000Y-122639651D02*
X144248000Y-122639651D01*
X142233000Y-120879651D02*
X144248000Y-120879651D01*
X141979000Y-121199651D02*
X144248000Y-121199651D01*
X142834000Y-120319651D02*
X147742000Y-120319651D01*
X146328000Y-122359651D02*
X149177000Y-122359651D01*
X142198000Y-120919651D02*
X144248000Y-120919651D01*
X146328000Y-122599651D02*
X149245000Y-122599651D01*
X141726000Y-121599651D02*
X144248000Y-121599651D01*
X146328000Y-122679651D02*
X149264000Y-122679651D01*
X146328000Y-120719651D02*
X148195000Y-120719651D01*
X141566000Y-121919651D02*
X144248000Y-121919651D01*
X142068000Y-121079651D02*
X144248000Y-121079651D01*
X146328000Y-122399651D02*
X149190000Y-122399651D01*
X143254000Y-120039651D02*
X147322000Y-120039651D01*
X143475000Y-119919651D02*
X147101000Y-119919651D01*
X143736000Y-119799651D02*
X146840000Y-119799651D01*
X141246000Y-123040651D02*
X149330000Y-123040651D01*
X141208000Y-123560651D02*
X149368000Y-123560651D01*
X143001000Y-120199651D02*
X147575000Y-120199651D01*
X141312000Y-122679651D02*
X144248000Y-122679651D01*
X141220000Y-123280651D02*
X149356000Y-123280651D01*
X141622000Y-121799651D02*
X144248000Y-121799651D01*
X146328000Y-122039651D02*
X149062000Y-122039651D01*
X146328000Y-121799651D02*
X148954000Y-121799651D01*
X141531000Y-121999651D02*
X144248000Y-121999651D01*
X141386000Y-122399651D02*
X144248000Y-122399651D01*
X146328000Y-121679651D02*
X148894000Y-121679651D01*
X142343000Y-120759651D02*
X144248000Y-120759651D01*
X142381000Y-120719651D02*
X144248000Y-120719651D01*
X141819000Y-121439651D02*
X144248000Y-121439651D01*
X141223000Y-123240651D02*
X149353000Y-123240651D01*
X141251000Y-123000651D02*
X149325000Y-123000651D01*
X142783000Y-120359651D02*
X147793000Y-120359651D01*
X146328000Y-121159651D02*
X148568000Y-121159651D01*
X141661000Y-121719651D02*
X144248000Y-121719651D01*
X143942000Y-119719651D02*
X146634000Y-119719651D01*
X141641000Y-121759651D02*
X144248000Y-121759651D01*
X146328000Y-122279651D02*
X149151000Y-122279651D01*
X141923000Y-121279651D02*
X144248000Y-121279651D01*
X141352000Y-122519651D02*
X144248000Y-122519651D01*
X142504000Y-120599651D02*
X148072000Y-120599651D01*
X141294000Y-122759651D02*
X149282000Y-122759651D01*
X142132000Y-120999651D02*
X144248000Y-120999651D01*
X146328000Y-122639651D02*
X149255000Y-122639651D01*
X146328000Y-121119651D02*
X148538000Y-121119651D01*
X142973000Y-128010349D02*
X142973000Y-127210349D01*
X144190000Y-119639651D02*
X146386000Y-119639651D01*
X144755000Y-119519651D02*
X145821000Y-119519651D01*
X146328000Y-121519651D02*
X148805000Y-121519651D01*
X146328000Y-121279651D02*
X148653000Y-121279651D01*
X146328000Y-120919651D02*
X148378000Y-120919651D01*
X141682000Y-121679651D02*
X144248000Y-121679651D01*
X146328000Y-121999651D02*
X149045000Y-121999651D01*
X146328000Y-122719651D02*
X149273000Y-122719651D01*
X141704000Y-121639651D02*
X144248000Y-121639651D01*
X141795000Y-121479651D02*
X144248000Y-121479651D01*
X143186000Y-120079651D02*
X147390000Y-120079651D01*
X141483000Y-122119651D02*
X144248000Y-122119651D01*
X141514000Y-122039651D02*
X144248000Y-122039651D01*
X146328000Y-121079651D02*
X148508000Y-121079651D01*
X141844000Y-121399651D02*
X144248000Y-121399651D01*
X141208000Y-123520651D02*
X149368000Y-123520651D01*
X146328000Y-121559651D02*
X148828000Y-121559651D01*
X142462000Y-120639651D02*
X148114000Y-120639651D01*
X146328000Y-122479651D02*
X149213000Y-122479651D01*
X143060000Y-120159651D02*
X147516000Y-120159651D01*
X146328000Y-121719651D02*
X148915000Y-121719651D01*
X142099000Y-121039651D02*
X144248000Y-121039651D01*
X142943000Y-120239651D02*
X147633000Y-120239651D01*
X142684000Y-120439651D02*
X147892000Y-120439651D01*
X146328000Y-121919651D02*
X149010000Y-121919651D01*
X141425000Y-122279651D02*
X144248000Y-122279651D01*
X149408000Y-123600651D02*
G75*
G03*
X149408000Y-123600651I-4120000J0D01*
G01*
%TO.C,Cout1*%
X196620000Y-109421651D02*
X198998000Y-109421651D01*
X193767000Y-107981651D02*
X197393000Y-107981651D01*
X196620000Y-109821651D02*
X199227000Y-109821651D01*
X196620000Y-110061651D02*
X199337000Y-110061651D01*
X191823000Y-110061651D02*
X194540000Y-110061651D01*
X192865000Y-115672349D02*
X193665000Y-115672349D01*
X191500000Y-111622651D02*
X199660000Y-111622651D01*
X191806000Y-110101651D02*
X194540000Y-110101651D01*
X192796000Y-108661651D02*
X198364000Y-108661651D01*
X191678000Y-110461651D02*
X194540000Y-110461651D01*
X192456000Y-109021651D02*
X194540000Y-109021651D01*
X196620000Y-110141651D02*
X199370000Y-110141651D01*
X191550000Y-111022651D02*
X199610000Y-111022651D01*
X196620000Y-109181651D02*
X198830000Y-109181651D01*
X191556000Y-110982651D02*
X199604000Y-110982651D01*
X196620000Y-108741651D02*
X198447000Y-108741651D01*
X194351000Y-107741651D02*
X196809000Y-107741651D01*
X193024000Y-108461651D02*
X198136000Y-108461651D01*
X191506000Y-111422651D02*
X199654000Y-111422651D01*
X193352000Y-108221651D02*
X197808000Y-108221651D01*
X196620000Y-109461651D02*
X199024000Y-109461651D01*
X192330000Y-109181651D02*
X194540000Y-109181651D01*
X192839000Y-108621651D02*
X198321000Y-108621651D01*
X192018000Y-109661651D02*
X194540000Y-109661651D01*
X191519000Y-111262651D02*
X199641000Y-111262651D01*
X193690000Y-108021651D02*
X197470000Y-108021651D01*
X196620000Y-109381651D02*
X198972000Y-109381651D01*
X191604000Y-110741651D02*
X194540000Y-110741651D01*
X192215000Y-109341651D02*
X194540000Y-109341651D01*
X193546000Y-108101651D02*
X197614000Y-108101651D01*
X192188000Y-109381651D02*
X194540000Y-109381651D01*
X192424000Y-109061651D02*
X194540000Y-109061651D01*
X191914000Y-109861651D02*
X194540000Y-109861651D01*
X191666000Y-110501651D02*
X194540000Y-110501651D01*
X196620000Y-110661651D02*
X199537000Y-110661651D01*
X196620000Y-109541651D02*
X199073000Y-109541651D01*
X194482000Y-107701651D02*
X196678000Y-107701651D01*
X196620000Y-108781651D02*
X198487000Y-108781651D01*
X196620000Y-108821651D02*
X198525000Y-108821651D01*
X191543000Y-111062651D02*
X199617000Y-111062651D01*
X196620000Y-109701651D02*
X199164000Y-109701651D01*
X191840000Y-110021651D02*
X194540000Y-110021651D01*
X192391000Y-109101651D02*
X194540000Y-109101651D01*
X192111000Y-109501651D02*
X194540000Y-109501651D01*
X196620000Y-110101651D02*
X199354000Y-110101651D01*
X193180000Y-108341651D02*
X197980000Y-108341651D01*
X193935000Y-107901651D02*
X197225000Y-107901651D01*
X196620000Y-110701651D02*
X199547000Y-110701651D01*
X196620000Y-109981651D02*
X199302000Y-109981651D01*
X192713000Y-108741651D02*
X194540000Y-108741651D01*
X196620000Y-110741651D02*
X199556000Y-110741651D01*
X192976000Y-108501651D02*
X198184000Y-108501651D01*
X192597000Y-108861651D02*
X194540000Y-108861651D01*
X192490000Y-108981651D02*
X194540000Y-108981651D01*
X193414000Y-108181651D02*
X197746000Y-108181651D01*
X192162000Y-109421651D02*
X194540000Y-109421651D01*
X191503000Y-111502651D02*
X199657000Y-111502651D01*
X191703000Y-110381651D02*
X194540000Y-110381651D01*
X191655000Y-110541651D02*
X194540000Y-110541651D01*
X191586000Y-110821651D02*
X199574000Y-110821651D01*
X192754000Y-108701651D02*
X198406000Y-108701651D01*
X196620000Y-109261651D02*
X198889000Y-109261651D01*
X191501000Y-111542651D02*
X199659000Y-111542651D01*
X191775000Y-110181651D02*
X194540000Y-110181651D01*
X196620000Y-110221651D02*
X199401000Y-110221651D01*
X192271000Y-109261651D02*
X194540000Y-109261651D01*
X195047000Y-107581651D02*
X196113000Y-107581651D01*
X193126000Y-108381651D02*
X198034000Y-108381651D01*
X196620000Y-109621651D02*
X199120000Y-109621651D01*
X196620000Y-108981651D02*
X198670000Y-108981651D01*
X194234000Y-107781651D02*
X196926000Y-107781651D01*
X191623000Y-110661651D02*
X194540000Y-110661651D01*
X196620000Y-109941651D02*
X199284000Y-109941651D01*
X191504000Y-111462651D02*
X199656000Y-111462651D01*
X196620000Y-109861651D02*
X199246000Y-109861651D01*
X196620000Y-110381651D02*
X199457000Y-110381651D01*
X191933000Y-109821651D02*
X194540000Y-109821651D01*
X192673000Y-108781651D02*
X194540000Y-108781651D01*
X191974000Y-109741651D02*
X194540000Y-109741651D01*
X192635000Y-108821651D02*
X194540000Y-108821651D01*
X194812000Y-107621651D02*
X196348000Y-107621651D01*
X196620000Y-110421651D02*
X199469000Y-110421651D01*
X196620000Y-110781651D02*
X199565000Y-110781651D01*
X191595000Y-110781651D02*
X194540000Y-110781651D01*
X196620000Y-110341651D02*
X199443000Y-110341651D01*
X192929000Y-108541651D02*
X198231000Y-108541651D01*
X193075000Y-108421651D02*
X198085000Y-108421651D01*
X191730000Y-110301651D02*
X194540000Y-110301651D01*
X196620000Y-109141651D02*
X198800000Y-109141651D01*
X196620000Y-110021651D02*
X199320000Y-110021651D01*
X196620000Y-110541651D02*
X199505000Y-110541651D01*
X196620000Y-109661651D02*
X199142000Y-109661651D01*
X191578000Y-110861651D02*
X199582000Y-110861651D01*
X192087000Y-109541651D02*
X194540000Y-109541651D01*
X191691000Y-110421651D02*
X194540000Y-110421651D01*
X191717000Y-110341651D02*
X194540000Y-110341651D01*
X192300000Y-109221651D02*
X194540000Y-109221651D01*
X191644000Y-110581651D02*
X194540000Y-110581651D01*
X191563000Y-110941651D02*
X199597000Y-110941651D01*
X196620000Y-109741651D02*
X199186000Y-109741651D01*
X191759000Y-110221651D02*
X194540000Y-110221651D01*
X194028000Y-107861651D02*
X197132000Y-107861651D01*
X192525000Y-108941651D02*
X194540000Y-108941651D01*
X193616000Y-108061651D02*
X197544000Y-108061651D01*
X191570000Y-110901651D02*
X199590000Y-110901651D01*
X191532000Y-111142651D02*
X199628000Y-111142651D01*
X193293000Y-108261651D02*
X197867000Y-108261651D01*
X196620000Y-109221651D02*
X198860000Y-109221651D01*
X191528000Y-111182651D02*
X199632000Y-111182651D01*
X191790000Y-110141651D02*
X194540000Y-110141651D01*
X191996000Y-109701651D02*
X194540000Y-109701651D01*
X191613000Y-110701651D02*
X194540000Y-110701651D01*
X193478000Y-108141651D02*
X197682000Y-108141651D01*
X196620000Y-110581651D02*
X199516000Y-110581651D01*
X192136000Y-109461651D02*
X194540000Y-109461651D01*
X196620000Y-109901651D02*
X199266000Y-109901651D01*
X191512000Y-111342651D02*
X199648000Y-111342651D01*
X196620000Y-110181651D02*
X199385000Y-110181651D01*
X194127000Y-107821651D02*
X197033000Y-107821651D01*
X196620000Y-110461651D02*
X199482000Y-110461651D01*
X196620000Y-108941651D02*
X198635000Y-108941651D01*
X191876000Y-109941651D02*
X194540000Y-109941651D01*
X191953000Y-109781651D02*
X194540000Y-109781651D01*
X196620000Y-110501651D02*
X199494000Y-110501651D01*
X196620000Y-110261651D02*
X199415000Y-110261651D01*
X196620000Y-110301651D02*
X199430000Y-110301651D01*
X193235000Y-108301651D02*
X197925000Y-108301651D01*
X191515000Y-111302651D02*
X199645000Y-111302651D01*
X196620000Y-109061651D02*
X198736000Y-109061651D01*
X196620000Y-109781651D02*
X199207000Y-109781651D01*
X191509000Y-111382651D02*
X199651000Y-111382651D01*
X196620000Y-108861651D02*
X198563000Y-108861651D01*
X196620000Y-109101651D02*
X198769000Y-109101651D01*
X196620000Y-109301651D02*
X198918000Y-109301651D01*
X196620000Y-109021651D02*
X198704000Y-109021651D01*
X196620000Y-108901651D02*
X198599000Y-108901651D01*
X192040000Y-109621651D02*
X194540000Y-109621651D01*
X192360000Y-109141651D02*
X194540000Y-109141651D01*
X191894000Y-109901651D02*
X194540000Y-109901651D01*
X191745000Y-110261651D02*
X194540000Y-110261651D01*
X191633000Y-110621651D02*
X194540000Y-110621651D01*
X191538000Y-111102651D02*
X199622000Y-111102651D01*
X193265000Y-116072349D02*
X193265000Y-115272349D01*
X192063000Y-109581651D02*
X194540000Y-109581651D01*
X196620000Y-109341651D02*
X198945000Y-109341651D01*
X193849000Y-107941651D02*
X197311000Y-107941651D01*
X191858000Y-109981651D02*
X194540000Y-109981651D01*
X191500000Y-111582651D02*
X199660000Y-111582651D01*
X196620000Y-109581651D02*
X199097000Y-109581651D01*
X191523000Y-111222651D02*
X199637000Y-111222651D01*
X196620000Y-110621651D02*
X199527000Y-110621651D01*
X191500000Y-111662651D02*
X199660000Y-111662651D01*
X196620000Y-109501651D02*
X199049000Y-109501651D01*
X192883000Y-108581651D02*
X198277000Y-108581651D01*
X194632000Y-107661651D02*
X196528000Y-107661651D01*
X192242000Y-109301651D02*
X194540000Y-109301651D01*
X192561000Y-108901651D02*
X194540000Y-108901651D01*
X199700000Y-111662651D02*
G75*
G03*
X199700000Y-111662651I-4120000J0D01*
G01*
%TO.C,R1*%
X134392936Y-105691000D02*
X134847064Y-105691000D01*
X134392936Y-107161000D02*
X134847064Y-107161000D01*
%TO.C,D1*%
X163396000Y-121456000D02*
X168836000Y-121456000D01*
X166116000Y-122366000D02*
X166116000Y-121456000D01*
X163396000Y-119791000D02*
X168836000Y-119791000D01*
X163396000Y-119911000D02*
X168836000Y-119911000D01*
X166116000Y-110806000D02*
X166116000Y-111716000D01*
X163396000Y-111716000D02*
X163396000Y-121456000D01*
X168836000Y-111716000D02*
X163396000Y-111716000D01*
X168836000Y-121456000D02*
X168836000Y-111716000D01*
X163396000Y-120031000D02*
X168836000Y-120031000D01*
%TO.C,D2*%
X131372000Y-118018000D02*
X134312000Y-118018000D01*
X132842000Y-110868000D02*
X132842000Y-113358000D01*
X131372000Y-117778000D02*
X134312000Y-117778000D01*
X134312000Y-118798000D02*
X134312000Y-113358000D01*
X134312000Y-113358000D02*
X131372000Y-113358000D01*
X131372000Y-113358000D02*
X131372000Y-118798000D01*
X131372000Y-118798000D02*
X134312000Y-118798000D01*
X132842000Y-121288000D02*
X132842000Y-118798000D01*
X131372000Y-117898000D02*
X134312000Y-117898000D01*
%TO.C,L1*%
X178054000Y-111125000D02*
X189484000Y-111125000D01*
X178054000Y-111125000D02*
X178054000Y-114935000D01*
X183134000Y-123825000D02*
X186182000Y-123825000D01*
X183134000Y-123825000D02*
X183134000Y-127635000D01*
X178054000Y-114935000D02*
X175006000Y-114935000D01*
X183134000Y-127635000D02*
X171704000Y-127635000D01*
%TO.C,R2*%
X134847064Y-127735000D02*
X134392936Y-127735000D01*
X134847064Y-126265000D02*
X134392936Y-126265000D01*
%TO.C,J1*%
X159507000Y-126940000D02*
X159507000Y-129600000D01*
X160777000Y-126940000D02*
X162107000Y-126940000D01*
X159507000Y-129600000D02*
X149287000Y-129600000D01*
X162107000Y-126940000D02*
X162107000Y-128270000D01*
X149287000Y-126940000D02*
X149287000Y-129600000D01*
X159507000Y-126940000D02*
X149287000Y-126940000D01*
%TO.C,U1*%
X150756000Y-117193000D02*
X151706000Y-117193000D01*
X161156000Y-115693000D02*
X161156000Y-117193000D01*
X161156000Y-117193000D02*
X160206000Y-117193000D01*
X160206000Y-117193000D02*
X160206000Y-118293000D01*
X150756000Y-115693000D02*
X150756000Y-117193000D01*
X151706000Y-117193000D02*
X151706000Y-122318000D01*
%TO.C,R3*%
X137936500Y-121141258D02*
X137936500Y-120666742D01*
X136891500Y-121141258D02*
X136891500Y-120666742D01*
%TD*%
M02*
