%TF.GenerationSoftware,KiCad,Pcbnew,6.0.2+dfsg-1*%
%TF.CreationDate,2025-02-13T13:42:11+01:00*%
%TF.ProjectId,Borrador_Dise_o_VL53L0XBoard,426f7272-6164-46f7-925f-44697365f16f,rev?*%
%TF.SameCoordinates,Original*%
%TF.FileFunction,Legend,Top*%
%TF.FilePolarity,Positive*%
%FSLAX46Y46*%
G04 Gerber Fmt 4.6, Leading zero omitted, Abs format (unit mm)*
G04 Created by KiCad (PCBNEW 6.0.2+dfsg-1) date 2025-02-13 13:42:11*
%MOMM*%
%LPD*%
G01*
G04 APERTURE LIST*
%ADD10C,0.100000*%
%ADD11C,0.150000*%
%ADD12C,0.120000*%
G04 APERTURE END LIST*
D10*
X143273428Y-96842285D02*
X142987714Y-97042285D01*
X143273428Y-97185142D02*
X142673428Y-97185142D01*
X142673428Y-96956571D01*
X142702000Y-96899428D01*
X142730571Y-96870857D01*
X142787714Y-96842285D01*
X142873428Y-96842285D01*
X142930571Y-96870857D01*
X142959142Y-96899428D01*
X142987714Y-96956571D01*
X142987714Y-97185142D01*
D11*
X143152761Y-99599619D02*
X143200380Y-99456761D01*
X143200380Y-99218666D01*
X143152761Y-99123428D01*
X143105142Y-99075809D01*
X143009904Y-99028190D01*
X142914666Y-99028190D01*
X142819428Y-99075809D01*
X142771809Y-99123428D01*
X142724190Y-99218666D01*
X142676571Y-99409142D01*
X142628952Y-99504380D01*
X142581333Y-99552000D01*
X142486095Y-99599619D01*
X142390857Y-99599619D01*
X142295619Y-99552000D01*
X142248000Y-99504380D01*
X142200380Y-99409142D01*
X142200380Y-99171047D01*
X142248000Y-99028190D01*
X143200380Y-98599619D02*
X142533714Y-98599619D01*
X142200380Y-98599619D02*
X142248000Y-98647238D01*
X142295619Y-98599619D01*
X142248000Y-98552000D01*
X142200380Y-98599619D01*
X142295619Y-98599619D01*
X142200380Y-97932952D02*
X142200380Y-97742476D01*
X142248000Y-97647238D01*
X142343238Y-97552000D01*
X142533714Y-97504380D01*
X142867047Y-97504380D01*
X143057523Y-97552000D01*
X143152761Y-97647238D01*
X143200380Y-97742476D01*
X143200380Y-97932952D01*
X143152761Y-98028190D01*
X143057523Y-98123428D01*
X142867047Y-98171047D01*
X142533714Y-98171047D01*
X142343238Y-98123428D01*
X142248000Y-98028190D01*
X142200380Y-97932952D01*
%TO.C,U1*%
X147828095Y-95550380D02*
X147828095Y-96359904D01*
X147875714Y-96455142D01*
X147923333Y-96502761D01*
X148018571Y-96550380D01*
X148209047Y-96550380D01*
X148304285Y-96502761D01*
X148351904Y-96455142D01*
X148399523Y-96359904D01*
X148399523Y-95550380D01*
X149399523Y-96550380D02*
X148828095Y-96550380D01*
X149113809Y-96550380D02*
X149113809Y-95550380D01*
X149018571Y-95693238D01*
X148923333Y-95788476D01*
X148828095Y-95836095D01*
D12*
X151140000Y-99648000D02*
X151140000Y-96948000D01*
X146040000Y-96948000D02*
X146040000Y-99648000D01*
X151140000Y-96948000D02*
X146040000Y-96948000D01*
X145790000Y-97498000D02*
X145790000Y-96698000D01*
X146040000Y-99648000D02*
X151140000Y-99648000D01*
X145790000Y-96698000D02*
X146590000Y-96698000D01*
%TD*%
M02*
