%TF.GenerationSoftware,KiCad,Pcbnew,6.0.2+dfsg-1*%
%TF.CreationDate,2025-02-13T13:42:11+01:00*%
%TF.ProjectId,Borrador_Dise_o_VL53L0XBoard,426f7272-6164-46f7-925f-44697365f16f,rev?*%
%TF.SameCoordinates,Original*%
%TF.FileFunction,Legend,Bot*%
%TF.FilePolarity,Positive*%
%FSLAX46Y46*%
G04 Gerber Fmt 4.6, Leading zero omitted, Abs format (unit mm)*
G04 Created by KiCad (PCBNEW 6.0.2+dfsg-1) date 2025-02-13 13:42:11*
%MOMM*%
%LPD*%
G01*
G04 APERTURE LIST*
%ADD10C,0.100000*%
%ADD11C,0.150000*%
%ADD12C,0.120000*%
G04 APERTURE END LIST*
D10*
X159754857Y-95272857D02*
X159783428Y-95358571D01*
X159783428Y-95501428D01*
X159754857Y-95558571D01*
X159726285Y-95587142D01*
X159669142Y-95615714D01*
X159612000Y-95615714D01*
X159554857Y-95587142D01*
X159526285Y-95558571D01*
X159497714Y-95501428D01*
X159469142Y-95387142D01*
X159440571Y-95330000D01*
X159412000Y-95301428D01*
X159354857Y-95272857D01*
X159297714Y-95272857D01*
X159240571Y-95301428D01*
X159212000Y-95330000D01*
X159183428Y-95387142D01*
X159183428Y-95530000D01*
X159212000Y-95615714D01*
X159754857Y-96101428D02*
X159783428Y-96044285D01*
X159783428Y-95930000D01*
X159754857Y-95872857D01*
X159697714Y-95844285D01*
X159469142Y-95844285D01*
X159412000Y-95872857D01*
X159383428Y-95930000D01*
X159383428Y-96044285D01*
X159412000Y-96101428D01*
X159469142Y-96130000D01*
X159526285Y-96130000D01*
X159583428Y-95844285D01*
X159383428Y-96387142D02*
X159783428Y-96387142D01*
X159440571Y-96387142D02*
X159412000Y-96415714D01*
X159383428Y-96472857D01*
X159383428Y-96558571D01*
X159412000Y-96615714D01*
X159469142Y-96644285D01*
X159783428Y-96644285D01*
X159754857Y-96901428D02*
X159783428Y-96958571D01*
X159783428Y-97072857D01*
X159754857Y-97130000D01*
X159697714Y-97158571D01*
X159669142Y-97158571D01*
X159612000Y-97130000D01*
X159583428Y-97072857D01*
X159583428Y-96987142D01*
X159554857Y-96930000D01*
X159497714Y-96901428D01*
X159469142Y-96901428D01*
X159412000Y-96930000D01*
X159383428Y-96987142D01*
X159383428Y-97072857D01*
X159412000Y-97130000D01*
X159783428Y-97501428D02*
X159754857Y-97444285D01*
X159726285Y-97415714D01*
X159669142Y-97387142D01*
X159497714Y-97387142D01*
X159440571Y-97415714D01*
X159412000Y-97444285D01*
X159383428Y-97501428D01*
X159383428Y-97587142D01*
X159412000Y-97644285D01*
X159440571Y-97672857D01*
X159497714Y-97701428D01*
X159669142Y-97701428D01*
X159726285Y-97672857D01*
X159754857Y-97644285D01*
X159783428Y-97587142D01*
X159783428Y-97501428D01*
X159783428Y-97958571D02*
X159383428Y-97958571D01*
X159497714Y-97958571D02*
X159440571Y-97987142D01*
X159412000Y-98015714D01*
X159383428Y-98072857D01*
X159383428Y-98130000D01*
X159183428Y-98701428D02*
X159783428Y-98901428D01*
X159183428Y-99101428D01*
X159783428Y-99587142D02*
X159783428Y-99301428D01*
X159183428Y-99301428D01*
X159183428Y-100072857D02*
X159183428Y-99787142D01*
X159469142Y-99758571D01*
X159440571Y-99787142D01*
X159412000Y-99844285D01*
X159412000Y-99987142D01*
X159440571Y-100044285D01*
X159469142Y-100072857D01*
X159526285Y-100101428D01*
X159669142Y-100101428D01*
X159726285Y-100072857D01*
X159754857Y-100044285D01*
X159783428Y-99987142D01*
X159783428Y-99844285D01*
X159754857Y-99787142D01*
X159726285Y-99758571D01*
X159183428Y-100301428D02*
X159183428Y-100672857D01*
X159412000Y-100472857D01*
X159412000Y-100558571D01*
X159440571Y-100615714D01*
X159469142Y-100644285D01*
X159526285Y-100672857D01*
X159669142Y-100672857D01*
X159726285Y-100644285D01*
X159754857Y-100615714D01*
X159783428Y-100558571D01*
X159783428Y-100387142D01*
X159754857Y-100330000D01*
X159726285Y-100301428D01*
X159783428Y-101215714D02*
X159783428Y-100930000D01*
X159183428Y-100930000D01*
X159183428Y-101530000D02*
X159183428Y-101587142D01*
X159212000Y-101644285D01*
X159240571Y-101672857D01*
X159297714Y-101701428D01*
X159412000Y-101730000D01*
X159554857Y-101730000D01*
X159669142Y-101701428D01*
X159726285Y-101672857D01*
X159754857Y-101644285D01*
X159783428Y-101587142D01*
X159783428Y-101530000D01*
X159754857Y-101472857D01*
X159726285Y-101444285D01*
X159669142Y-101415714D01*
X159554857Y-101387142D01*
X159412000Y-101387142D01*
X159297714Y-101415714D01*
X159240571Y-101444285D01*
X159212000Y-101472857D01*
X159183428Y-101530000D01*
X159183428Y-101930000D02*
X159783428Y-102330000D01*
X159183428Y-102330000D02*
X159783428Y-101930000D01*
X159554857Y-103015714D02*
X159554857Y-103472857D01*
X159783428Y-104530000D02*
X159783428Y-104187142D01*
X159783428Y-104358571D02*
X159183428Y-104358571D01*
X159269142Y-104301428D01*
X159326285Y-104244285D01*
X159354857Y-104187142D01*
X159726285Y-104787142D02*
X159754857Y-104815714D01*
X159783428Y-104787142D01*
X159754857Y-104758571D01*
X159726285Y-104787142D01*
X159783428Y-104787142D01*
X159183428Y-105187142D02*
X159183428Y-105244285D01*
X159212000Y-105301428D01*
X159240571Y-105330000D01*
X159297714Y-105358571D01*
X159412000Y-105387142D01*
X159554857Y-105387142D01*
X159669142Y-105358571D01*
X159726285Y-105330000D01*
X159754857Y-105301428D01*
X159783428Y-105244285D01*
X159783428Y-105187142D01*
X159754857Y-105130000D01*
X159726285Y-105101428D01*
X159669142Y-105072857D01*
X159554857Y-105044285D01*
X159412000Y-105044285D01*
X159297714Y-105072857D01*
X159240571Y-105101428D01*
X159212000Y-105130000D01*
X159183428Y-105187142D01*
X145375238Y-106455333D02*
X145303809Y-106488666D01*
X145184761Y-106488666D01*
X145137142Y-106455333D01*
X145113333Y-106422000D01*
X145089523Y-106355333D01*
X145089523Y-106288666D01*
X145113333Y-106222000D01*
X145137142Y-106188666D01*
X145184761Y-106155333D01*
X145280000Y-106122000D01*
X145327619Y-106088666D01*
X145351428Y-106055333D01*
X145375238Y-105988666D01*
X145375238Y-105922000D01*
X145351428Y-105855333D01*
X145327619Y-105822000D01*
X145280000Y-105788666D01*
X145160952Y-105788666D01*
X145089523Y-105822000D01*
X144589523Y-106422000D02*
X144613333Y-106455333D01*
X144684761Y-106488666D01*
X144732380Y-106488666D01*
X144803809Y-106455333D01*
X144851428Y-106388666D01*
X144875238Y-106322000D01*
X144899047Y-106188666D01*
X144899047Y-106088666D01*
X144875238Y-105955333D01*
X144851428Y-105888666D01*
X144803809Y-105822000D01*
X144732380Y-105788666D01*
X144684761Y-105788666D01*
X144613333Y-105822000D01*
X144589523Y-105855333D01*
X144137142Y-106488666D02*
X144375238Y-106488666D01*
X144375238Y-105788666D01*
X153519047Y-105788666D02*
X153185714Y-106488666D01*
X153185714Y-105788666D02*
X153519047Y-106488666D01*
X153019047Y-106455333D02*
X152947619Y-106488666D01*
X152828571Y-106488666D01*
X152780952Y-106455333D01*
X152757142Y-106422000D01*
X152733333Y-106355333D01*
X152733333Y-106288666D01*
X152757142Y-106222000D01*
X152780952Y-106188666D01*
X152828571Y-106155333D01*
X152923809Y-106122000D01*
X152971428Y-106088666D01*
X152995238Y-106055333D01*
X153019047Y-105988666D01*
X153019047Y-105922000D01*
X152995238Y-105855333D01*
X152971428Y-105822000D01*
X152923809Y-105788666D01*
X152804761Y-105788666D01*
X152733333Y-105822000D01*
X152519047Y-106488666D02*
X152519047Y-105788666D01*
X152519047Y-106122000D02*
X152233333Y-106122000D01*
X152233333Y-106488666D02*
X152233333Y-105788666D01*
X151995238Y-105788666D02*
X151995238Y-106355333D01*
X151971428Y-106422000D01*
X151947619Y-106455333D01*
X151900000Y-106488666D01*
X151804761Y-106488666D01*
X151757142Y-106455333D01*
X151733333Y-106422000D01*
X151709523Y-106355333D01*
X151709523Y-105788666D01*
X151542857Y-105788666D02*
X151257142Y-105788666D01*
X151400000Y-106488666D02*
X151400000Y-105788666D01*
X147927142Y-106455333D02*
X147855714Y-106488666D01*
X147736666Y-106488666D01*
X147689047Y-106455333D01*
X147665238Y-106422000D01*
X147641428Y-106355333D01*
X147641428Y-106288666D01*
X147665238Y-106222000D01*
X147689047Y-106188666D01*
X147736666Y-106155333D01*
X147831904Y-106122000D01*
X147879523Y-106088666D01*
X147903333Y-106055333D01*
X147927142Y-105988666D01*
X147927142Y-105922000D01*
X147903333Y-105855333D01*
X147879523Y-105822000D01*
X147831904Y-105788666D01*
X147712857Y-105788666D01*
X147641428Y-105822000D01*
X147427142Y-106488666D02*
X147427142Y-105788666D01*
X147308095Y-105788666D01*
X147236666Y-105822000D01*
X147189047Y-105888666D01*
X147165238Y-105955333D01*
X147141428Y-106088666D01*
X147141428Y-106188666D01*
X147165238Y-106322000D01*
X147189047Y-106388666D01*
X147236666Y-106455333D01*
X147308095Y-106488666D01*
X147427142Y-106488666D01*
X146950952Y-106288666D02*
X146712857Y-106288666D01*
X146998571Y-106488666D02*
X146831904Y-105788666D01*
X146665238Y-106488666D01*
X142906666Y-105788666D02*
X142740000Y-106488666D01*
X142573333Y-105788666D01*
X142120952Y-106422000D02*
X142144761Y-106455333D01*
X142216190Y-106488666D01*
X142263809Y-106488666D01*
X142335238Y-106455333D01*
X142382857Y-106388666D01*
X142406666Y-106322000D01*
X142430476Y-106188666D01*
X142430476Y-106088666D01*
X142406666Y-105955333D01*
X142382857Y-105888666D01*
X142335238Y-105822000D01*
X142263809Y-105788666D01*
X142216190Y-105788666D01*
X142144761Y-105822000D01*
X142120952Y-105855333D01*
X141620952Y-106422000D02*
X141644761Y-106455333D01*
X141716190Y-106488666D01*
X141763809Y-106488666D01*
X141835238Y-106455333D01*
X141882857Y-106388666D01*
X141906666Y-106322000D01*
X141930476Y-106188666D01*
X141930476Y-106088666D01*
X141906666Y-105955333D01*
X141882857Y-105888666D01*
X141835238Y-105822000D01*
X141763809Y-105788666D01*
X141716190Y-105788666D01*
X141644761Y-105822000D01*
X141620952Y-105855333D01*
X155320952Y-105822000D02*
X155368571Y-105788666D01*
X155440000Y-105788666D01*
X155511428Y-105822000D01*
X155559047Y-105888666D01*
X155582857Y-105955333D01*
X155606666Y-106088666D01*
X155606666Y-106188666D01*
X155582857Y-106322000D01*
X155559047Y-106388666D01*
X155511428Y-106455333D01*
X155440000Y-106488666D01*
X155392380Y-106488666D01*
X155320952Y-106455333D01*
X155297142Y-106422000D01*
X155297142Y-106188666D01*
X155392380Y-106188666D01*
X155082857Y-106488666D02*
X155082857Y-105788666D01*
X154797142Y-106488666D01*
X154797142Y-105788666D01*
X154559047Y-106488666D02*
X154559047Y-105788666D01*
X154440000Y-105788666D01*
X154368571Y-105822000D01*
X154320952Y-105888666D01*
X154297142Y-105955333D01*
X154273333Y-106088666D01*
X154273333Y-106188666D01*
X154297142Y-106322000D01*
X154320952Y-106388666D01*
X154368571Y-106455333D01*
X154440000Y-106488666D01*
X154559047Y-106488666D01*
X150598095Y-105822000D02*
X150645714Y-105788666D01*
X150717142Y-105788666D01*
X150788571Y-105822000D01*
X150836190Y-105888666D01*
X150860000Y-105955333D01*
X150883809Y-106088666D01*
X150883809Y-106188666D01*
X150860000Y-106322000D01*
X150836190Y-106388666D01*
X150788571Y-106455333D01*
X150717142Y-106488666D01*
X150669523Y-106488666D01*
X150598095Y-106455333D01*
X150574285Y-106422000D01*
X150574285Y-106188666D01*
X150669523Y-106188666D01*
X150360000Y-106488666D02*
X150360000Y-105788666D01*
X150169523Y-105788666D01*
X150121904Y-105822000D01*
X150098095Y-105855333D01*
X150074285Y-105922000D01*
X150074285Y-106022000D01*
X150098095Y-106088666D01*
X150121904Y-106122000D01*
X150169523Y-106155333D01*
X150360000Y-106155333D01*
X149860000Y-106488666D02*
X149860000Y-105788666D01*
X149526666Y-105788666D02*
X149431428Y-105788666D01*
X149383809Y-105822000D01*
X149336190Y-105888666D01*
X149312380Y-106022000D01*
X149312380Y-106255333D01*
X149336190Y-106388666D01*
X149383809Y-106455333D01*
X149431428Y-106488666D01*
X149526666Y-106488666D01*
X149574285Y-106455333D01*
X149621904Y-106388666D01*
X149645714Y-106255333D01*
X149645714Y-106022000D01*
X149621904Y-105888666D01*
X149574285Y-105822000D01*
X149526666Y-105788666D01*
X148836190Y-106488666D02*
X149121904Y-106488666D01*
X148979047Y-106488666D02*
X148979047Y-105788666D01*
X149026666Y-105888666D01*
X149074285Y-105955333D01*
X149121904Y-105988666D01*
D11*
%TO.C,C1*%
X147994666Y-98583142D02*
X148042285Y-98630761D01*
X148185142Y-98678380D01*
X148280380Y-98678380D01*
X148423238Y-98630761D01*
X148518476Y-98535523D01*
X148566095Y-98440285D01*
X148613714Y-98249809D01*
X148613714Y-98106952D01*
X148566095Y-97916476D01*
X148518476Y-97821238D01*
X148423238Y-97726000D01*
X148280380Y-97678380D01*
X148185142Y-97678380D01*
X148042285Y-97726000D01*
X147994666Y-97773619D01*
X147042285Y-98678380D02*
X147613714Y-98678380D01*
X147328000Y-98678380D02*
X147328000Y-97678380D01*
X147423238Y-97821238D01*
X147518476Y-97916476D01*
X147613714Y-97964095D01*
%TO.C,C2*%
X147994666Y-94773142D02*
X148042285Y-94820761D01*
X148185142Y-94868380D01*
X148280380Y-94868380D01*
X148423238Y-94820761D01*
X148518476Y-94725523D01*
X148566095Y-94630285D01*
X148613714Y-94439809D01*
X148613714Y-94296952D01*
X148566095Y-94106476D01*
X148518476Y-94011238D01*
X148423238Y-93916000D01*
X148280380Y-93868380D01*
X148185142Y-93868380D01*
X148042285Y-93916000D01*
X147994666Y-93963619D01*
X147613714Y-93963619D02*
X147566095Y-93916000D01*
X147470857Y-93868380D01*
X147232761Y-93868380D01*
X147137523Y-93916000D01*
X147089904Y-93963619D01*
X147042285Y-94058857D01*
X147042285Y-94154095D01*
X147089904Y-94296952D01*
X147661333Y-94868380D01*
X147042285Y-94868380D01*
%TO.C,J1*%
X139362380Y-103298666D02*
X140076666Y-103298666D01*
X140219523Y-103251047D01*
X140314761Y-103155809D01*
X140362380Y-103012952D01*
X140362380Y-102917714D01*
X140362380Y-104298666D02*
X140362380Y-103727238D01*
X140362380Y-104012952D02*
X139362380Y-104012952D01*
X139505238Y-103917714D01*
X139600476Y-103822476D01*
X139648095Y-103727238D01*
D12*
%TO.C,C1*%
X148539252Y-100986000D02*
X147116748Y-100986000D01*
X148539252Y-99166000D02*
X147116748Y-99166000D01*
%TO.C,C2*%
X148539252Y-97176000D02*
X147116748Y-97176000D01*
X148539252Y-95356000D02*
X147116748Y-95356000D01*
%TO.C,J1*%
X143510000Y-102302000D02*
X143510000Y-104962000D01*
X143510000Y-104962000D02*
X156270000Y-104962000D01*
X140910000Y-102302000D02*
X140910000Y-103632000D01*
X156270000Y-102302000D02*
X156270000Y-104962000D01*
X142240000Y-102302000D02*
X140910000Y-102302000D01*
X143510000Y-102302000D02*
X156270000Y-102302000D01*
%TD*%
M02*
