%TF.GenerationSoftware,KiCad,Pcbnew,6.0.2+dfsg-1*%
%TF.CreationDate,2025-02-13T13:53:20+01:00*%
%TF.ProjectId,VL53L0X10,564c3533-4c30-4583-9130-2e6b69636164,rev?*%
%TF.SameCoordinates,Original*%
%TF.FileFunction,Copper,L2,Bot*%
%TF.FilePolarity,Positive*%
%FSLAX46Y46*%
G04 Gerber Fmt 4.6, Leading zero omitted, Abs format (unit mm)*
G04 Created by KiCad (PCBNEW 6.0.2+dfsg-1) date 2025-02-13 13:53:20*
%MOMM*%
%LPD*%
G01*
G04 APERTURE LIST*
G04 Aperture macros list*
%AMRoundRect*
0 Rectangle with rounded corners*
0 $1 Rounding radius*
0 $2 $3 $4 $5 $6 $7 $8 $9 X,Y pos of 4 corners*
0 Add a 4 corners polygon primitive as box body*
4,1,4,$2,$3,$4,$5,$6,$7,$8,$9,$2,$3,0*
0 Add four circle primitives for the rounded corners*
1,1,$1+$1,$2,$3*
1,1,$1+$1,$4,$5*
1,1,$1+$1,$6,$7*
1,1,$1+$1,$8,$9*
0 Add four rect primitives between the rounded corners*
20,1,$1+$1,$2,$3,$4,$5,0*
20,1,$1+$1,$4,$5,$6,$7,0*
20,1,$1+$1,$6,$7,$8,$9,0*
20,1,$1+$1,$8,$9,$2,$3,0*%
G04 Aperture macros list end*
%TA.AperFunction,SMDPad,CuDef*%
%ADD10RoundRect,0.339622X1.160378X0.560378X-1.160378X0.560378X-1.160378X-0.560378X1.160378X-0.560378X0*%
%TD*%
%TA.AperFunction,ComponentPad*%
%ADD11R,1.700000X1.700000*%
%TD*%
%TA.AperFunction,ComponentPad*%
%ADD12O,1.700000X1.700000*%
%TD*%
%TA.AperFunction,ViaPad*%
%ADD13C,0.800000*%
%TD*%
%TA.AperFunction,Conductor*%
%ADD14C,0.400000*%
%TD*%
G04 APERTURE END LIST*
D10*
%TO.P,C1,1*%
%TO.N,GND*%
X150228000Y-100076000D03*
%TO.P,C1,2*%
%TO.N,+3V3*%
X145428000Y-100076000D03*
%TD*%
%TO.P,C2,1*%
%TO.N,GND*%
X150228000Y-96266000D03*
%TO.P,C2,2*%
%TO.N,+3V3*%
X145428000Y-96266000D03*
%TD*%
D11*
%TO.P,J1,1,Pin_1*%
%TO.N,+3V3*%
X142240000Y-103632000D03*
D12*
%TO.P,J1,2,Pin_2*%
%TO.N,/SCL*%
X144780000Y-103632000D03*
%TO.P,J1,3,Pin_3*%
%TO.N,/SDA*%
X147320000Y-103632000D03*
%TO.P,J1,4,Pin_4*%
%TO.N,/GPIO1*%
X149860000Y-103632000D03*
%TO.P,J1,5,Pin_5*%
%TO.N,/XSHUT*%
X152400000Y-103632000D03*
%TO.P,J1,6,Pin_6*%
%TO.N,GND*%
X154940000Y-103632000D03*
%TD*%
D13*
%TO.N,+3V3*%
X145288000Y-98298000D03*
%TO.N,GND*%
X153416000Y-96266000D03*
%TD*%
D14*
%TO.N,+3V3*%
X145288000Y-98298000D02*
X145288000Y-99936000D01*
X145288000Y-96406000D02*
X145428000Y-96266000D01*
X145288000Y-98298000D02*
X145288000Y-96406000D01*
X145288000Y-99936000D02*
X145428000Y-100076000D01*
%TD*%
%TA.AperFunction,Conductor*%
%TO.N,GND*%
G36*
X158438121Y-92984002D02*
G01*
X158484614Y-93037658D01*
X158496000Y-93090000D01*
X158496000Y-107062000D01*
X158475998Y-107130121D01*
X158422342Y-107176614D01*
X158370000Y-107188000D01*
X138810000Y-107188000D01*
X138741879Y-107167998D01*
X138695386Y-107114342D01*
X138684000Y-107062000D01*
X138684000Y-104530134D01*
X140881500Y-104530134D01*
X140888255Y-104592316D01*
X140939385Y-104728705D01*
X141026739Y-104845261D01*
X141143295Y-104932615D01*
X141279684Y-104983745D01*
X141341866Y-104990500D01*
X143138134Y-104990500D01*
X143200316Y-104983745D01*
X143336705Y-104932615D01*
X143453261Y-104845261D01*
X143540615Y-104728705D01*
X143562799Y-104669529D01*
X143584598Y-104611382D01*
X143627240Y-104554618D01*
X143693802Y-104529918D01*
X143763150Y-104545126D01*
X143797817Y-104573114D01*
X143826250Y-104605938D01*
X143998126Y-104748632D01*
X144191000Y-104861338D01*
X144399692Y-104941030D01*
X144404760Y-104942061D01*
X144404763Y-104942062D01*
X144499862Y-104961410D01*
X144618597Y-104985567D01*
X144623772Y-104985757D01*
X144623774Y-104985757D01*
X144836673Y-104993564D01*
X144836677Y-104993564D01*
X144841837Y-104993753D01*
X144846957Y-104993097D01*
X144846959Y-104993097D01*
X145058288Y-104966025D01*
X145058289Y-104966025D01*
X145063416Y-104965368D01*
X145068366Y-104963883D01*
X145272429Y-104902661D01*
X145272434Y-104902659D01*
X145277384Y-104901174D01*
X145477994Y-104802896D01*
X145659860Y-104673173D01*
X145818096Y-104515489D01*
X145948453Y-104334077D01*
X145949776Y-104335028D01*
X145996645Y-104291857D01*
X146066580Y-104279625D01*
X146132026Y-104307144D01*
X146159875Y-104338994D01*
X146219987Y-104437088D01*
X146366250Y-104605938D01*
X146538126Y-104748632D01*
X146731000Y-104861338D01*
X146939692Y-104941030D01*
X146944760Y-104942061D01*
X146944763Y-104942062D01*
X147039862Y-104961410D01*
X147158597Y-104985567D01*
X147163772Y-104985757D01*
X147163774Y-104985757D01*
X147376673Y-104993564D01*
X147376677Y-104993564D01*
X147381837Y-104993753D01*
X147386957Y-104993097D01*
X147386959Y-104993097D01*
X147598288Y-104966025D01*
X147598289Y-104966025D01*
X147603416Y-104965368D01*
X147608366Y-104963883D01*
X147812429Y-104902661D01*
X147812434Y-104902659D01*
X147817384Y-104901174D01*
X148017994Y-104802896D01*
X148199860Y-104673173D01*
X148358096Y-104515489D01*
X148488453Y-104334077D01*
X148489776Y-104335028D01*
X148536645Y-104291857D01*
X148606580Y-104279625D01*
X148672026Y-104307144D01*
X148699875Y-104338994D01*
X148759987Y-104437088D01*
X148906250Y-104605938D01*
X149078126Y-104748632D01*
X149271000Y-104861338D01*
X149479692Y-104941030D01*
X149484760Y-104942061D01*
X149484763Y-104942062D01*
X149579862Y-104961410D01*
X149698597Y-104985567D01*
X149703772Y-104985757D01*
X149703774Y-104985757D01*
X149916673Y-104993564D01*
X149916677Y-104993564D01*
X149921837Y-104993753D01*
X149926957Y-104993097D01*
X149926959Y-104993097D01*
X150138288Y-104966025D01*
X150138289Y-104966025D01*
X150143416Y-104965368D01*
X150148366Y-104963883D01*
X150352429Y-104902661D01*
X150352434Y-104902659D01*
X150357384Y-104901174D01*
X150557994Y-104802896D01*
X150739860Y-104673173D01*
X150898096Y-104515489D01*
X151028453Y-104334077D01*
X151029776Y-104335028D01*
X151076645Y-104291857D01*
X151146580Y-104279625D01*
X151212026Y-104307144D01*
X151239875Y-104338994D01*
X151299987Y-104437088D01*
X151446250Y-104605938D01*
X151618126Y-104748632D01*
X151811000Y-104861338D01*
X152019692Y-104941030D01*
X152024760Y-104942061D01*
X152024763Y-104942062D01*
X152119862Y-104961410D01*
X152238597Y-104985567D01*
X152243772Y-104985757D01*
X152243774Y-104985757D01*
X152456673Y-104993564D01*
X152456677Y-104993564D01*
X152461837Y-104993753D01*
X152466957Y-104993097D01*
X152466959Y-104993097D01*
X152678288Y-104966025D01*
X152678289Y-104966025D01*
X152683416Y-104965368D01*
X152688366Y-104963883D01*
X152892429Y-104902661D01*
X152892434Y-104902659D01*
X152897384Y-104901174D01*
X153097994Y-104802896D01*
X153279860Y-104673173D01*
X153438096Y-104515489D01*
X153568453Y-104334077D01*
X153569640Y-104334930D01*
X153616960Y-104291362D01*
X153686897Y-104279145D01*
X153752338Y-104306678D01*
X153780166Y-104338511D01*
X153837694Y-104432388D01*
X153843777Y-104440699D01*
X153983213Y-104601667D01*
X153990580Y-104608883D01*
X154154434Y-104744916D01*
X154162881Y-104750831D01*
X154346756Y-104858279D01*
X154356042Y-104862729D01*
X154555001Y-104938703D01*
X154564899Y-104941579D01*
X154668250Y-104962606D01*
X154682299Y-104961410D01*
X154686000Y-104951065D01*
X154686000Y-104950517D01*
X155194000Y-104950517D01*
X155198064Y-104964359D01*
X155211478Y-104966393D01*
X155218184Y-104965534D01*
X155228262Y-104963392D01*
X155432255Y-104902191D01*
X155441842Y-104898433D01*
X155633095Y-104804739D01*
X155641945Y-104799464D01*
X155815328Y-104675792D01*
X155823200Y-104669139D01*
X155974052Y-104518812D01*
X155980730Y-104510965D01*
X156105003Y-104338020D01*
X156110313Y-104329183D01*
X156204670Y-104138267D01*
X156208469Y-104128672D01*
X156270377Y-103924910D01*
X156272555Y-103914837D01*
X156273986Y-103903962D01*
X156271775Y-103889778D01*
X156258617Y-103886000D01*
X155212115Y-103886000D01*
X155196876Y-103890475D01*
X155195671Y-103891865D01*
X155194000Y-103899548D01*
X155194000Y-104950517D01*
X154686000Y-104950517D01*
X154686000Y-103359885D01*
X155194000Y-103359885D01*
X155198475Y-103375124D01*
X155199865Y-103376329D01*
X155207548Y-103378000D01*
X156258344Y-103378000D01*
X156271875Y-103374027D01*
X156273180Y-103364947D01*
X156231214Y-103197875D01*
X156227894Y-103188124D01*
X156142972Y-102992814D01*
X156138105Y-102983739D01*
X156022426Y-102804926D01*
X156016136Y-102796757D01*
X155872806Y-102639240D01*
X155865273Y-102632215D01*
X155698139Y-102500222D01*
X155689552Y-102494517D01*
X155503117Y-102391599D01*
X155493705Y-102387369D01*
X155292959Y-102316280D01*
X155282988Y-102313646D01*
X155211837Y-102300972D01*
X155198540Y-102302432D01*
X155194000Y-102316989D01*
X155194000Y-103359885D01*
X154686000Y-103359885D01*
X154686000Y-102315102D01*
X154682082Y-102301758D01*
X154667806Y-102299771D01*
X154629324Y-102305660D01*
X154619288Y-102308051D01*
X154416868Y-102374212D01*
X154407359Y-102378209D01*
X154218463Y-102476542D01*
X154209738Y-102482036D01*
X154039433Y-102609905D01*
X154031726Y-102616748D01*
X153884590Y-102770717D01*
X153878109Y-102778722D01*
X153773498Y-102932074D01*
X153718587Y-102977076D01*
X153648062Y-102985247D01*
X153584315Y-102953993D01*
X153563618Y-102929509D01*
X153482822Y-102804617D01*
X153482820Y-102804614D01*
X153480014Y-102800277D01*
X153329670Y-102635051D01*
X153325619Y-102631852D01*
X153325615Y-102631848D01*
X153158414Y-102499800D01*
X153158410Y-102499798D01*
X153154359Y-102496598D01*
X153118028Y-102476542D01*
X153102136Y-102467769D01*
X152958789Y-102388638D01*
X152953920Y-102386914D01*
X152953916Y-102386912D01*
X152753087Y-102315795D01*
X152753083Y-102315794D01*
X152748212Y-102314069D01*
X152743119Y-102313162D01*
X152743116Y-102313161D01*
X152533373Y-102275800D01*
X152533367Y-102275799D01*
X152528284Y-102274894D01*
X152454452Y-102273992D01*
X152310081Y-102272228D01*
X152310079Y-102272228D01*
X152304911Y-102272165D01*
X152084091Y-102305955D01*
X151871756Y-102375357D01*
X151673607Y-102478507D01*
X151669474Y-102481610D01*
X151669471Y-102481612D01*
X151499100Y-102609530D01*
X151494965Y-102612635D01*
X151491393Y-102616373D01*
X151383729Y-102729037D01*
X151340629Y-102774138D01*
X151233201Y-102931621D01*
X151178293Y-102976621D01*
X151107768Y-102984792D01*
X151044021Y-102953538D01*
X151023324Y-102929054D01*
X150942822Y-102804617D01*
X150942820Y-102804614D01*
X150940014Y-102800277D01*
X150789670Y-102635051D01*
X150785619Y-102631852D01*
X150785615Y-102631848D01*
X150618414Y-102499800D01*
X150618410Y-102499798D01*
X150614359Y-102496598D01*
X150578028Y-102476542D01*
X150562136Y-102467769D01*
X150418789Y-102388638D01*
X150413920Y-102386914D01*
X150413916Y-102386912D01*
X150213087Y-102315795D01*
X150213083Y-102315794D01*
X150208212Y-102314069D01*
X150203119Y-102313162D01*
X150203116Y-102313161D01*
X149993373Y-102275800D01*
X149993367Y-102275799D01*
X149988284Y-102274894D01*
X149914452Y-102273992D01*
X149770081Y-102272228D01*
X149770079Y-102272228D01*
X149764911Y-102272165D01*
X149544091Y-102305955D01*
X149331756Y-102375357D01*
X149133607Y-102478507D01*
X149129474Y-102481610D01*
X149129471Y-102481612D01*
X148959100Y-102609530D01*
X148954965Y-102612635D01*
X148951393Y-102616373D01*
X148843729Y-102729037D01*
X148800629Y-102774138D01*
X148693201Y-102931621D01*
X148638293Y-102976621D01*
X148567768Y-102984792D01*
X148504021Y-102953538D01*
X148483324Y-102929054D01*
X148402822Y-102804617D01*
X148402820Y-102804614D01*
X148400014Y-102800277D01*
X148249670Y-102635051D01*
X148245619Y-102631852D01*
X148245615Y-102631848D01*
X148078414Y-102499800D01*
X148078410Y-102499798D01*
X148074359Y-102496598D01*
X148038028Y-102476542D01*
X148022136Y-102467769D01*
X147878789Y-102388638D01*
X147873920Y-102386914D01*
X147873916Y-102386912D01*
X147673087Y-102315795D01*
X147673083Y-102315794D01*
X147668212Y-102314069D01*
X147663119Y-102313162D01*
X147663116Y-102313161D01*
X147453373Y-102275800D01*
X147453367Y-102275799D01*
X147448284Y-102274894D01*
X147374452Y-102273992D01*
X147230081Y-102272228D01*
X147230079Y-102272228D01*
X147224911Y-102272165D01*
X147004091Y-102305955D01*
X146791756Y-102375357D01*
X146593607Y-102478507D01*
X146589474Y-102481610D01*
X146589471Y-102481612D01*
X146419100Y-102609530D01*
X146414965Y-102612635D01*
X146411393Y-102616373D01*
X146303729Y-102729037D01*
X146260629Y-102774138D01*
X146153201Y-102931621D01*
X146098293Y-102976621D01*
X146027768Y-102984792D01*
X145964021Y-102953538D01*
X145943324Y-102929054D01*
X145862822Y-102804617D01*
X145862820Y-102804614D01*
X145860014Y-102800277D01*
X145709670Y-102635051D01*
X145705619Y-102631852D01*
X145705615Y-102631848D01*
X145538414Y-102499800D01*
X145538410Y-102499798D01*
X145534359Y-102496598D01*
X145498028Y-102476542D01*
X145482136Y-102467769D01*
X145338789Y-102388638D01*
X145333920Y-102386914D01*
X145333916Y-102386912D01*
X145133087Y-102315795D01*
X145133083Y-102315794D01*
X145128212Y-102314069D01*
X145123119Y-102313162D01*
X145123116Y-102313161D01*
X144913373Y-102275800D01*
X144913367Y-102275799D01*
X144908284Y-102274894D01*
X144834452Y-102273992D01*
X144690081Y-102272228D01*
X144690079Y-102272228D01*
X144684911Y-102272165D01*
X144464091Y-102305955D01*
X144251756Y-102375357D01*
X144053607Y-102478507D01*
X144049474Y-102481610D01*
X144049471Y-102481612D01*
X143879100Y-102609530D01*
X143874965Y-102612635D01*
X143818537Y-102671684D01*
X143794283Y-102697064D01*
X143732759Y-102732494D01*
X143661846Y-102729037D01*
X143604060Y-102687791D01*
X143585207Y-102654243D01*
X143543767Y-102543703D01*
X143540615Y-102535295D01*
X143453261Y-102418739D01*
X143336705Y-102331385D01*
X143200316Y-102280255D01*
X143138134Y-102273500D01*
X141341866Y-102273500D01*
X141279684Y-102280255D01*
X141143295Y-102331385D01*
X141026739Y-102418739D01*
X140939385Y-102535295D01*
X140888255Y-102671684D01*
X140881500Y-102733866D01*
X140881500Y-104530134D01*
X138684000Y-104530134D01*
X138684000Y-99442263D01*
X143419500Y-99442263D01*
X143419501Y-100709736D01*
X143422392Y-100752160D01*
X143423735Y-100757548D01*
X143423736Y-100757552D01*
X143460019Y-100903073D01*
X143466972Y-100930960D01*
X143470004Y-100937067D01*
X143470005Y-100937071D01*
X143507939Y-101013488D01*
X143548906Y-101096016D01*
X143664373Y-101239627D01*
X143807984Y-101355094D01*
X143890512Y-101396061D01*
X143966929Y-101433995D01*
X143966933Y-101433996D01*
X143973040Y-101437028D01*
X144151840Y-101481608D01*
X144172483Y-101483015D01*
X144192116Y-101484354D01*
X144192127Y-101484354D01*
X144194263Y-101484500D01*
X145426852Y-101484500D01*
X146661736Y-101484499D01*
X146687466Y-101482746D01*
X146698615Y-101481986D01*
X146698616Y-101481986D01*
X146704160Y-101481608D01*
X146709548Y-101480265D01*
X146709552Y-101480264D01*
X146876338Y-101438679D01*
X146882960Y-101437028D01*
X146889067Y-101433996D01*
X146889071Y-101433995D01*
X146965488Y-101396061D01*
X147048016Y-101355094D01*
X147191627Y-101239627D01*
X147307094Y-101096016D01*
X147348061Y-101013488D01*
X147385995Y-100937071D01*
X147385996Y-100937067D01*
X147389028Y-100930960D01*
X147433608Y-100752160D01*
X147435015Y-100731517D01*
X147436354Y-100711884D01*
X147436354Y-100711873D01*
X147436500Y-100709737D01*
X147436500Y-100707536D01*
X148220001Y-100707536D01*
X148220148Y-100711837D01*
X148222513Y-100746546D01*
X148224236Y-100757485D01*
X148265793Y-100924164D01*
X148270477Y-100936897D01*
X148346298Y-101089637D01*
X148353603Y-101101060D01*
X148460458Y-101233959D01*
X148470041Y-101243542D01*
X148602940Y-101350397D01*
X148614363Y-101357702D01*
X148767103Y-101433523D01*
X148779836Y-101438207D01*
X148946511Y-101479763D01*
X148957457Y-101481487D01*
X148992166Y-101483854D01*
X148996461Y-101484000D01*
X149955885Y-101484000D01*
X149971124Y-101479525D01*
X149972329Y-101478135D01*
X149974000Y-101470452D01*
X149974000Y-101465884D01*
X150482000Y-101465884D01*
X150486475Y-101481123D01*
X150487865Y-101482328D01*
X150495548Y-101483999D01*
X151459536Y-101483999D01*
X151463837Y-101483852D01*
X151498546Y-101481487D01*
X151509485Y-101479764D01*
X151676164Y-101438207D01*
X151688897Y-101433523D01*
X151841637Y-101357702D01*
X151853060Y-101350397D01*
X151985959Y-101243542D01*
X151995542Y-101233959D01*
X152102397Y-101101060D01*
X152109702Y-101089637D01*
X152185523Y-100936897D01*
X152190207Y-100924164D01*
X152231763Y-100757489D01*
X152233487Y-100746543D01*
X152235854Y-100711834D01*
X152236000Y-100707539D01*
X152236000Y-100348115D01*
X152231525Y-100332876D01*
X152230135Y-100331671D01*
X152222452Y-100330000D01*
X150500115Y-100330000D01*
X150484876Y-100334475D01*
X150483671Y-100335865D01*
X150482000Y-100343548D01*
X150482000Y-101465884D01*
X149974000Y-101465884D01*
X149974000Y-100348115D01*
X149969525Y-100332876D01*
X149968135Y-100331671D01*
X149960452Y-100330000D01*
X148238116Y-100330000D01*
X148222877Y-100334475D01*
X148221672Y-100335865D01*
X148220001Y-100343548D01*
X148220001Y-100707536D01*
X147436500Y-100707536D01*
X147436499Y-99803885D01*
X148220000Y-99803885D01*
X148224475Y-99819124D01*
X148225865Y-99820329D01*
X148233548Y-99822000D01*
X149955885Y-99822000D01*
X149971124Y-99817525D01*
X149972329Y-99816135D01*
X149974000Y-99808452D01*
X149974000Y-99803885D01*
X150482000Y-99803885D01*
X150486475Y-99819124D01*
X150487865Y-99820329D01*
X150495548Y-99822000D01*
X152217884Y-99822000D01*
X152233123Y-99817525D01*
X152234328Y-99816135D01*
X152235999Y-99808452D01*
X152235999Y-99444464D01*
X152235852Y-99440163D01*
X152233487Y-99405454D01*
X152231764Y-99394515D01*
X152190207Y-99227836D01*
X152185523Y-99215103D01*
X152109702Y-99062363D01*
X152102397Y-99050940D01*
X151995542Y-98918041D01*
X151985959Y-98908458D01*
X151853060Y-98801603D01*
X151841637Y-98794298D01*
X151688897Y-98718477D01*
X151676164Y-98713793D01*
X151509489Y-98672237D01*
X151498543Y-98670513D01*
X151463834Y-98668146D01*
X151459538Y-98668000D01*
X150500115Y-98668000D01*
X150484876Y-98672475D01*
X150483671Y-98673865D01*
X150482000Y-98681548D01*
X150482000Y-99803885D01*
X149974000Y-99803885D01*
X149974000Y-98686116D01*
X149969525Y-98670877D01*
X149968135Y-98669672D01*
X149960452Y-98668001D01*
X148996464Y-98668001D01*
X148992163Y-98668148D01*
X148957454Y-98670513D01*
X148946515Y-98672236D01*
X148779836Y-98713793D01*
X148767103Y-98718477D01*
X148614363Y-98794298D01*
X148602940Y-98801603D01*
X148470041Y-98908458D01*
X148460458Y-98918041D01*
X148353603Y-99050940D01*
X148346298Y-99062363D01*
X148270477Y-99215103D01*
X148265793Y-99227836D01*
X148224237Y-99394511D01*
X148222513Y-99405457D01*
X148220146Y-99440166D01*
X148220000Y-99444462D01*
X148220000Y-99803885D01*
X147436499Y-99803885D01*
X147436499Y-99442264D01*
X147433608Y-99399840D01*
X147432263Y-99394443D01*
X147390679Y-99227662D01*
X147389028Y-99221040D01*
X147385996Y-99214933D01*
X147385995Y-99214929D01*
X147348061Y-99138512D01*
X147307094Y-99055984D01*
X147191627Y-98912373D01*
X147048016Y-98796906D01*
X146965488Y-98755939D01*
X146889071Y-98718005D01*
X146889067Y-98718004D01*
X146882960Y-98714972D01*
X146704160Y-98670392D01*
X146683517Y-98668985D01*
X146663884Y-98667646D01*
X146663873Y-98667646D01*
X146661737Y-98667500D01*
X146296619Y-98667500D01*
X146228498Y-98647498D01*
X146182005Y-98593842D01*
X146171901Y-98523568D01*
X146176786Y-98502564D01*
X146181542Y-98487928D01*
X146201504Y-98298000D01*
X146181542Y-98108072D01*
X146122527Y-97926444D01*
X146119223Y-97920721D01*
X146086186Y-97863499D01*
X146069448Y-97794503D01*
X146092669Y-97727411D01*
X146148476Y-97683524D01*
X146195305Y-97674499D01*
X146661736Y-97674499D01*
X146687466Y-97672746D01*
X146698615Y-97671986D01*
X146698616Y-97671986D01*
X146704160Y-97671608D01*
X146709548Y-97670265D01*
X146709552Y-97670264D01*
X146876338Y-97628679D01*
X146882960Y-97627028D01*
X146889067Y-97623996D01*
X146889071Y-97623995D01*
X146965488Y-97586061D01*
X147048016Y-97545094D01*
X147191627Y-97429627D01*
X147307094Y-97286016D01*
X147348061Y-97203488D01*
X147385995Y-97127071D01*
X147385996Y-97127067D01*
X147389028Y-97120960D01*
X147433608Y-96942160D01*
X147435015Y-96921517D01*
X147436354Y-96901884D01*
X147436354Y-96901873D01*
X147436500Y-96899737D01*
X147436500Y-96897536D01*
X148220001Y-96897536D01*
X148220148Y-96901837D01*
X148222513Y-96936546D01*
X148224236Y-96947485D01*
X148265793Y-97114164D01*
X148270477Y-97126897D01*
X148346298Y-97279637D01*
X148353603Y-97291060D01*
X148460458Y-97423959D01*
X148470041Y-97433542D01*
X148602940Y-97540397D01*
X148614363Y-97547702D01*
X148767103Y-97623523D01*
X148779836Y-97628207D01*
X148946511Y-97669763D01*
X148957457Y-97671487D01*
X148992166Y-97673854D01*
X148996461Y-97674000D01*
X149955885Y-97674000D01*
X149971124Y-97669525D01*
X149972329Y-97668135D01*
X149974000Y-97660452D01*
X149974000Y-97655884D01*
X150482000Y-97655884D01*
X150486475Y-97671123D01*
X150487865Y-97672328D01*
X150495548Y-97673999D01*
X151459536Y-97673999D01*
X151463837Y-97673852D01*
X151498546Y-97671487D01*
X151509485Y-97669764D01*
X151676164Y-97628207D01*
X151688897Y-97623523D01*
X151841637Y-97547702D01*
X151853060Y-97540397D01*
X151985959Y-97433542D01*
X151995542Y-97423959D01*
X152102397Y-97291060D01*
X152109702Y-97279637D01*
X152185523Y-97126897D01*
X152190207Y-97114164D01*
X152231763Y-96947489D01*
X152233487Y-96936543D01*
X152235854Y-96901834D01*
X152236000Y-96897539D01*
X152236000Y-96538115D01*
X152231525Y-96522876D01*
X152230135Y-96521671D01*
X152222452Y-96520000D01*
X150500115Y-96520000D01*
X150484876Y-96524475D01*
X150483671Y-96525865D01*
X150482000Y-96533548D01*
X150482000Y-97655884D01*
X149974000Y-97655884D01*
X149974000Y-96538115D01*
X149969525Y-96522876D01*
X149968135Y-96521671D01*
X149960452Y-96520000D01*
X148238116Y-96520000D01*
X148222877Y-96524475D01*
X148221672Y-96525865D01*
X148220001Y-96533548D01*
X148220001Y-96897536D01*
X147436500Y-96897536D01*
X147436499Y-95993885D01*
X148220000Y-95993885D01*
X148224475Y-96009124D01*
X148225865Y-96010329D01*
X148233548Y-96012000D01*
X149955885Y-96012000D01*
X149971124Y-96007525D01*
X149972329Y-96006135D01*
X149974000Y-95998452D01*
X149974000Y-95993885D01*
X150482000Y-95993885D01*
X150486475Y-96009124D01*
X150487865Y-96010329D01*
X150495548Y-96012000D01*
X152217884Y-96012000D01*
X152233123Y-96007525D01*
X152234328Y-96006135D01*
X152235999Y-95998452D01*
X152235999Y-95634464D01*
X152235852Y-95630163D01*
X152233487Y-95595454D01*
X152231764Y-95584515D01*
X152190207Y-95417836D01*
X152185523Y-95405103D01*
X152109702Y-95252363D01*
X152102397Y-95240940D01*
X151995542Y-95108041D01*
X151985959Y-95098458D01*
X151853060Y-94991603D01*
X151841637Y-94984298D01*
X151688897Y-94908477D01*
X151676164Y-94903793D01*
X151509489Y-94862237D01*
X151498543Y-94860513D01*
X151463834Y-94858146D01*
X151459538Y-94858000D01*
X150500115Y-94858000D01*
X150484876Y-94862475D01*
X150483671Y-94863865D01*
X150482000Y-94871548D01*
X150482000Y-95993885D01*
X149974000Y-95993885D01*
X149974000Y-94876116D01*
X149969525Y-94860877D01*
X149968135Y-94859672D01*
X149960452Y-94858001D01*
X148996464Y-94858001D01*
X148992163Y-94858148D01*
X148957454Y-94860513D01*
X148946515Y-94862236D01*
X148779836Y-94903793D01*
X148767103Y-94908477D01*
X148614363Y-94984298D01*
X148602940Y-94991603D01*
X148470041Y-95098458D01*
X148460458Y-95108041D01*
X148353603Y-95240940D01*
X148346298Y-95252363D01*
X148270477Y-95405103D01*
X148265793Y-95417836D01*
X148224237Y-95584511D01*
X148222513Y-95595457D01*
X148220146Y-95630166D01*
X148220000Y-95634462D01*
X148220000Y-95993885D01*
X147436499Y-95993885D01*
X147436499Y-95632264D01*
X147433608Y-95589840D01*
X147432263Y-95584443D01*
X147390679Y-95417662D01*
X147389028Y-95411040D01*
X147385996Y-95404933D01*
X147385995Y-95404929D01*
X147348061Y-95328512D01*
X147307094Y-95245984D01*
X147191627Y-95102373D01*
X147048016Y-94986906D01*
X146965488Y-94945939D01*
X146889071Y-94908005D01*
X146889067Y-94908004D01*
X146882960Y-94904972D01*
X146704160Y-94860392D01*
X146683517Y-94858985D01*
X146663884Y-94857646D01*
X146663873Y-94857646D01*
X146661737Y-94857500D01*
X145429148Y-94857500D01*
X144194264Y-94857501D01*
X144168534Y-94859254D01*
X144157385Y-94860014D01*
X144157384Y-94860014D01*
X144151840Y-94860392D01*
X144146452Y-94861735D01*
X144146448Y-94861736D01*
X144000927Y-94898019D01*
X143973040Y-94904972D01*
X143966933Y-94908004D01*
X143966929Y-94908005D01*
X143890512Y-94945939D01*
X143807984Y-94986906D01*
X143664373Y-95102373D01*
X143548906Y-95245984D01*
X143507939Y-95328512D01*
X143470005Y-95404929D01*
X143470004Y-95404933D01*
X143466972Y-95411040D01*
X143422392Y-95589840D01*
X143422009Y-95595457D01*
X143419647Y-95630111D01*
X143419500Y-95632263D01*
X143419501Y-96899736D01*
X143422392Y-96942160D01*
X143423735Y-96947548D01*
X143423736Y-96947552D01*
X143460019Y-97093073D01*
X143466972Y-97120960D01*
X143470004Y-97127067D01*
X143470005Y-97127071D01*
X143507939Y-97203488D01*
X143548906Y-97286016D01*
X143664373Y-97429627D01*
X143807984Y-97545094D01*
X143890512Y-97586061D01*
X143966929Y-97623995D01*
X143966933Y-97623996D01*
X143973040Y-97627028D01*
X144151840Y-97671608D01*
X144172483Y-97673015D01*
X144192116Y-97674354D01*
X144192127Y-97674354D01*
X144194263Y-97674500D01*
X144380695Y-97674500D01*
X144448816Y-97694502D01*
X144495309Y-97748158D01*
X144505413Y-97818432D01*
X144489814Y-97863499D01*
X144453473Y-97926444D01*
X144394458Y-98108072D01*
X144374496Y-98298000D01*
X144394458Y-98487928D01*
X144399213Y-98502560D01*
X144399214Y-98502564D01*
X144401242Y-98573531D01*
X144364580Y-98634330D01*
X144300868Y-98665655D01*
X144279381Y-98667501D01*
X144194264Y-98667501D01*
X144168534Y-98669254D01*
X144157385Y-98670014D01*
X144157384Y-98670014D01*
X144151840Y-98670392D01*
X144146452Y-98671735D01*
X144146448Y-98671736D01*
X144000927Y-98708019D01*
X143973040Y-98714972D01*
X143966933Y-98718004D01*
X143966929Y-98718005D01*
X143890512Y-98755939D01*
X143807984Y-98796906D01*
X143664373Y-98912373D01*
X143548906Y-99055984D01*
X143507939Y-99138512D01*
X143470005Y-99214929D01*
X143470004Y-99214933D01*
X143466972Y-99221040D01*
X143422392Y-99399840D01*
X143422009Y-99405457D01*
X143419647Y-99440111D01*
X143419500Y-99442263D01*
X138684000Y-99442263D01*
X138684000Y-93090000D01*
X138704002Y-93021879D01*
X138757658Y-92975386D01*
X138810000Y-92964000D01*
X158370000Y-92964000D01*
X158438121Y-92984002D01*
G37*
%TD.AperFunction*%
%TD*%
M02*
