%TF.GenerationSoftware,KiCad,Pcbnew,6.0.2+dfsg-1*%
%TF.CreationDate,2025-04-12T20:02:49+02:00*%
%TF.ProjectId,Placa base v1.0,506c6163-6120-4626-9173-652076312e30,rev?*%
%TF.SameCoordinates,Original*%
%TF.FileFunction,Soldermask,Bot*%
%TF.FilePolarity,Negative*%
%FSLAX46Y46*%
G04 Gerber Fmt 4.6, Leading zero omitted, Abs format (unit mm)*
G04 Created by KiCad (PCBNEW 6.0.2+dfsg-1) date 2025-04-12 20:02:49*
%MOMM*%
%LPD*%
G01*
G04 APERTURE LIST*
%ADD10C,1.400000*%
%ADD11R,2.700000X6.000000*%
%ADD12R,1.700000X1.700000*%
%ADD13O,1.700000X1.700000*%
%ADD14R,1.500000X1.500000*%
%ADD15C,1.500000*%
%ADD16C,1.524000*%
%ADD17R,1.524000X1.524000*%
%ADD18C,1.700000*%
%ADD19C,1.600000*%
%ADD20O,1.600000X1.600000*%
%ADD21R,1.800000X1.800000*%
%ADD22C,1.800000*%
%ADD23R,2.800000X2.800000*%
%ADD24O,2.800000X2.800000*%
%ADD25O,1.400000X1.400000*%
G04 APERTURE END LIST*
%TO.C,G\u002A\u002A\u002A*%
G36*
X117709129Y-73234015D02*
G01*
X117411897Y-73392631D01*
X117208658Y-73424282D01*
X116316474Y-73917047D01*
X115323419Y-74790000D01*
X114516853Y-75761909D01*
X114184140Y-76551542D01*
X114208168Y-76844911D01*
X114613631Y-77338869D01*
X115541149Y-77158895D01*
X117018447Y-76302552D01*
X117502511Y-75990675D01*
X118317961Y-75567184D01*
X118640280Y-75565066D01*
X118630344Y-75651845D01*
X118123638Y-76362418D01*
X116961443Y-77247676D01*
X115298175Y-78186500D01*
X114354854Y-78668355D01*
X112681739Y-79554691D01*
X111006746Y-80470271D01*
X109174769Y-81349287D01*
X105980237Y-82465630D01*
X102376403Y-83338242D01*
X98643316Y-83889671D01*
X98466200Y-83907657D01*
X96949115Y-84110111D01*
X95875638Y-84338575D01*
X95468350Y-84546968D01*
X95482604Y-84612987D01*
X96003479Y-85019318D01*
X97057139Y-85428028D01*
X98346547Y-85743427D01*
X99574668Y-85869824D01*
X100652774Y-85994968D01*
X101843455Y-86388495D01*
X101994972Y-86470196D01*
X102470312Y-86801137D01*
X102274265Y-87056924D01*
X101317940Y-87410414D01*
X99823279Y-87913662D01*
X101322130Y-88943797D01*
X101449413Y-89032186D01*
X103256344Y-90610546D01*
X104280398Y-92323285D01*
X104623245Y-94336491D01*
X104640440Y-94720444D01*
X104898110Y-96412256D01*
X105356610Y-97865930D01*
X105774071Y-99138938D01*
X105683310Y-100694206D01*
X105479589Y-101276333D01*
X104293372Y-103282739D01*
X102401992Y-105341949D01*
X99924491Y-107317059D01*
X99545162Y-107587917D01*
X97796983Y-109071707D01*
X96357543Y-110667112D01*
X95378984Y-112184611D01*
X95013450Y-113434679D01*
X94948285Y-114247156D01*
X94731473Y-115737653D01*
X94416820Y-117415088D01*
X94180290Y-118795212D01*
X94095237Y-119928444D01*
X94203300Y-120449281D01*
X94257691Y-120487356D01*
X94577122Y-121099632D01*
X94563729Y-121223220D01*
X94141447Y-121508769D01*
X93268193Y-121272138D01*
X92136544Y-120556207D01*
X91426005Y-120056028D01*
X90579940Y-119830986D01*
X89482531Y-120110593D01*
X89473104Y-120113976D01*
X88296613Y-120374408D01*
X86598124Y-120562814D01*
X84741976Y-120638612D01*
X81177349Y-120843405D01*
X78252817Y-121458339D01*
X75931627Y-122504433D01*
X75101943Y-122921846D01*
X73386626Y-123386709D01*
X71016572Y-123636304D01*
X70403506Y-123678277D01*
X67620503Y-124106328D01*
X65260960Y-124943597D01*
X63963215Y-125493190D01*
X62791440Y-125707364D01*
X61904249Y-125358575D01*
X61051490Y-124415438D01*
X60759217Y-123623264D01*
X61229884Y-122964794D01*
X62492276Y-122552697D01*
X64506418Y-122410175D01*
X65618442Y-122364537D01*
X67765016Y-122106566D01*
X69653260Y-121696813D01*
X70973757Y-121244893D01*
X73133322Y-120342635D01*
X75505727Y-119214334D01*
X77882522Y-117970428D01*
X80055258Y-116721358D01*
X81815488Y-115577562D01*
X82954762Y-114649480D01*
X84455384Y-113101231D01*
X83274727Y-112804906D01*
X82969229Y-112743214D01*
X81230525Y-112722129D01*
X79344514Y-113078760D01*
X77808454Y-113729041D01*
X77437474Y-113929341D01*
X76901273Y-114000669D01*
X76181051Y-113766176D01*
X75094460Y-113157893D01*
X73459149Y-112107847D01*
X72859866Y-111720040D01*
X71123636Y-110697345D01*
X69923276Y-110194968D01*
X69150736Y-110164164D01*
X68595637Y-110241429D01*
X67403650Y-109889375D01*
X66448758Y-109035568D01*
X66057824Y-107917446D01*
X66124930Y-107288523D01*
X66547323Y-106900866D01*
X67591174Y-106813684D01*
X67724606Y-106815454D01*
X68812307Y-106967456D01*
X69418705Y-107289677D01*
X69572850Y-107455232D01*
X70263444Y-107554401D01*
X70639260Y-107595562D01*
X71575143Y-108054802D01*
X72731959Y-108860864D01*
X73522206Y-109455909D01*
X74534318Y-110120206D01*
X75125432Y-110378596D01*
X75367510Y-110296019D01*
X76165739Y-109755693D01*
X77179387Y-108878003D01*
X78197402Y-108032140D01*
X80558122Y-106798352D01*
X83057653Y-106368070D01*
X83322813Y-106365060D01*
X83999362Y-106231053D01*
X84275368Y-105712364D01*
X84328000Y-104556318D01*
X84390897Y-103533038D01*
X84932410Y-101643175D01*
X85968881Y-100352084D01*
X86160039Y-100191354D01*
X86312374Y-99702686D01*
X85870825Y-98903839D01*
X85403861Y-98335559D01*
X84675556Y-97969591D01*
X83751493Y-98228908D01*
X82425719Y-99126842D01*
X82352558Y-99183434D01*
X81107480Y-100484926D01*
X80532337Y-102023333D01*
X80472974Y-102333980D01*
X80101857Y-103419026D01*
X79626044Y-103620720D01*
X79047243Y-102938012D01*
X79016982Y-102881275D01*
X78888942Y-101677457D01*
X79561151Y-100131205D01*
X81039170Y-98229369D01*
X81634704Y-97535360D01*
X82252362Y-96691629D01*
X82405542Y-96276022D01*
X82300893Y-96247193D01*
X81583713Y-96392976D01*
X80477041Y-96802172D01*
X80118510Y-96952008D01*
X78908001Y-97410055D01*
X78089403Y-97649974D01*
X77941576Y-97707516D01*
X77433381Y-98431606D01*
X77038565Y-99837136D01*
X76895614Y-100511311D01*
X76586942Y-101516433D01*
X76313304Y-101911929D01*
X76253479Y-101909307D01*
X75572776Y-101452380D01*
X75136973Y-100383543D01*
X75052755Y-98953204D01*
X75055246Y-98924371D01*
X75301653Y-97897893D01*
X75920108Y-96956410D01*
X77025905Y-95999608D01*
X78734339Y-94927171D01*
X81160703Y-93638784D01*
X81764019Y-93339840D01*
X82984736Y-92828478D01*
X83787049Y-92716764D01*
X84418261Y-92952603D01*
X84718387Y-93113796D01*
X85599316Y-93244692D01*
X86857534Y-92910531D01*
X87652987Y-92646160D01*
X88357637Y-92611362D01*
X88997698Y-93027629D01*
X89892139Y-94010589D01*
X90807255Y-94977783D01*
X91460266Y-95264873D01*
X92036412Y-94802574D01*
X92751219Y-93556666D01*
X93057051Y-92591162D01*
X92746741Y-91671948D01*
X91653955Y-90951065D01*
X89726520Y-90373611D01*
X88448420Y-90134278D01*
X87120331Y-89991028D01*
X86338622Y-90039440D01*
X85990357Y-90077409D01*
X85076277Y-89738277D01*
X84245112Y-89052872D01*
X83882386Y-88294999D01*
X84082010Y-88035066D01*
X84931693Y-87566422D01*
X86221859Y-87095899D01*
X87497736Y-86690198D01*
X89505842Y-86002817D01*
X91429888Y-85299707D01*
X94298443Y-84206560D01*
X91557990Y-84008334D01*
X90387495Y-83868341D01*
X88592990Y-83361246D01*
X87421136Y-82591706D01*
X87001684Y-81627521D01*
X87003909Y-81581676D01*
X87311956Y-80822976D01*
X87962800Y-79881115D01*
X88702081Y-79079115D01*
X89275437Y-78740000D01*
X89338729Y-78764039D01*
X89251283Y-79215530D01*
X88727454Y-80058210D01*
X88166286Y-81063460D01*
X88231046Y-81934685D01*
X89096935Y-82546299D01*
X90802453Y-82951997D01*
X91766334Y-83060803D01*
X92989136Y-83023033D01*
X93522710Y-82715287D01*
X93279108Y-82165494D01*
X92874061Y-81492504D01*
X92992784Y-80271648D01*
X93948314Y-78774189D01*
X94356742Y-78317385D01*
X95124956Y-77630764D01*
X95583637Y-77429868D01*
X95603454Y-77737707D01*
X95055079Y-78577287D01*
X94338658Y-79841046D01*
X94290977Y-81071579D01*
X95001002Y-82004091D01*
X96404613Y-82561098D01*
X98437694Y-82665113D01*
X100592912Y-82527719D01*
X100442828Y-80391868D01*
X100528823Y-78542849D01*
X101261925Y-76787129D01*
X102694241Y-75569289D01*
X102904581Y-75459460D01*
X103289294Y-75328710D01*
X103137755Y-75654066D01*
X102420694Y-76539328D01*
X102067458Y-76991001D01*
X101597596Y-77801347D01*
X101622920Y-78192108D01*
X102213119Y-78155851D01*
X103314372Y-77722540D01*
X104526638Y-77027774D01*
X105539646Y-76254507D01*
X106043126Y-75585691D01*
X106051341Y-75555475D01*
X106411994Y-74917908D01*
X106844596Y-74708519D01*
X107054315Y-75075935D01*
X106980596Y-75444797D01*
X106311245Y-76454482D01*
X105112758Y-77516302D01*
X103591607Y-78430248D01*
X102288500Y-79131870D01*
X101509496Y-79833745D01*
X101515937Y-80480356D01*
X102265101Y-81159604D01*
X102741386Y-81437854D01*
X103436941Y-81626043D01*
X104379695Y-81542617D01*
X105871272Y-81190128D01*
X106133055Y-81121066D01*
X108741415Y-80288975D01*
X110644603Y-79332800D01*
X112013984Y-78142739D01*
X113020920Y-76608992D01*
X113093348Y-76468309D01*
X114274622Y-74759926D01*
X115753708Y-73700451D01*
X116150891Y-73521090D01*
X117142760Y-73173132D01*
X117655684Y-73150725D01*
X117709129Y-73234015D01*
G37*
G36*
X58793185Y-106306322D02*
G01*
X58885575Y-107058711D01*
X58913828Y-108569906D01*
X58903583Y-110012972D01*
X58826484Y-110803818D01*
X58643595Y-110957326D01*
X58316592Y-110604014D01*
X58214384Y-110469671D01*
X57922492Y-110205155D01*
X57487451Y-110088873D01*
X56766120Y-110138790D01*
X55615362Y-110372868D01*
X53892035Y-110809071D01*
X51453000Y-111465361D01*
X48953172Y-112165552D01*
X47088374Y-112749533D01*
X45848187Y-113235480D01*
X45107682Y-113672624D01*
X44741935Y-114110201D01*
X44567189Y-114396129D01*
X44393115Y-114305894D01*
X44299932Y-113518867D01*
X44266446Y-111938245D01*
X44267642Y-111161518D01*
X44322299Y-109897540D01*
X44462572Y-109404393D01*
X44704044Y-109598771D01*
X44816893Y-109779571D01*
X45152593Y-110124569D01*
X45663089Y-110287463D01*
X46484454Y-110254479D01*
X47752760Y-110011840D01*
X49604079Y-109545772D01*
X52174485Y-108842498D01*
X53921617Y-108333437D01*
X56068035Y-107618464D01*
X57559845Y-106995725D01*
X58287506Y-106507069D01*
X58596549Y-106180643D01*
X58793185Y-106306322D01*
G37*
G36*
X58634793Y-92391107D02*
G01*
X58786716Y-92917338D01*
X58875716Y-93950586D01*
X58917556Y-95618877D01*
X58928000Y-98050236D01*
X58926330Y-98654756D01*
X58891504Y-100806703D01*
X58818426Y-102575030D01*
X58716164Y-103790557D01*
X58593789Y-104284105D01*
X58550593Y-104306160D01*
X57832867Y-104526892D01*
X56699929Y-104776012D01*
X55140280Y-105071216D01*
X56380254Y-104020261D01*
X56450579Y-103957884D01*
X57118229Y-103097177D01*
X57664619Y-101984257D01*
X58008212Y-100874872D01*
X58067473Y-100024775D01*
X57760866Y-99689718D01*
X57512454Y-99726130D01*
X56505047Y-99954579D01*
X54957100Y-100345656D01*
X53069151Y-100844463D01*
X51041738Y-101396101D01*
X49075398Y-101945672D01*
X47370668Y-102438278D01*
X46128087Y-102819021D01*
X45548192Y-103033002D01*
X45176291Y-103404849D01*
X44665369Y-104297002D01*
X44602667Y-104428895D01*
X44425989Y-104375141D01*
X44329762Y-103467583D01*
X44311667Y-101689122D01*
X44320955Y-101049333D01*
X44370270Y-99747986D01*
X44446420Y-99061014D01*
X44537221Y-99126842D01*
X44772752Y-99721714D01*
X45304832Y-100043657D01*
X46265718Y-100066033D01*
X47793101Y-99791217D01*
X50024675Y-99221588D01*
X50967014Y-98964748D01*
X53532830Y-98259345D01*
X55388316Y-97728370D01*
X56648500Y-97327624D01*
X57428410Y-97012908D01*
X57843074Y-96740022D01*
X58007518Y-96464768D01*
X58036771Y-96142944D01*
X57969477Y-95302151D01*
X57457169Y-94240470D01*
X56429447Y-93890877D01*
X56143531Y-93879395D01*
X55450894Y-93636600D01*
X55548667Y-93222095D01*
X56435724Y-92827050D01*
X57219250Y-92611557D01*
X58218181Y-92285452D01*
X58404182Y-92243872D01*
X58634793Y-92391107D01*
G37*
G36*
X58830912Y-85109390D02*
G01*
X58831075Y-85116351D01*
X58851103Y-87226248D01*
X58813130Y-89008179D01*
X58724906Y-90274616D01*
X58594180Y-90838030D01*
X58554327Y-90872656D01*
X57824925Y-91204928D01*
X56686004Y-91508306D01*
X55140280Y-91816129D01*
X56459520Y-90679156D01*
X56554606Y-90596505D01*
X57218173Y-89916888D01*
X57612389Y-89153482D01*
X57829570Y-88037150D01*
X57962030Y-86298758D01*
X58145300Y-83055332D01*
X54637527Y-85785929D01*
X54186051Y-86137536D01*
X52027145Y-87821819D01*
X49714231Y-89629889D01*
X47676245Y-91226510D01*
X44222736Y-93936496D01*
X44222736Y-88109674D01*
X44218936Y-86030604D01*
X44244161Y-84266945D01*
X44367471Y-83100170D01*
X44658319Y-82371201D01*
X45186159Y-81920960D01*
X46020445Y-81590369D01*
X47230631Y-81220351D01*
X47853223Y-81087380D01*
X48198958Y-81244292D01*
X47877078Y-81716353D01*
X46920589Y-82380102D01*
X46275009Y-82858271D01*
X45524164Y-84030120D01*
X45177692Y-85767085D01*
X45196451Y-88201322D01*
X45336771Y-90307631D01*
X58705193Y-79743201D01*
X58830912Y-85109390D01*
G37*
G36*
X58340380Y-114014543D02*
G01*
X58682837Y-114513409D01*
X58851514Y-115532299D01*
X58904467Y-117194946D01*
X58899754Y-119625087D01*
X58863633Y-122047405D01*
X58780542Y-123653369D01*
X58649313Y-124400345D01*
X58468499Y-124304035D01*
X58122605Y-123664506D01*
X57681475Y-123301403D01*
X57627242Y-123307177D01*
X56908573Y-123465230D01*
X55540229Y-123807041D01*
X53693562Y-124288925D01*
X51539923Y-124867196D01*
X49682085Y-125392283D01*
X47343974Y-126147482D01*
X45801667Y-126799161D01*
X45002561Y-127367440D01*
X44810345Y-127593365D01*
X44478268Y-127879063D01*
X44302973Y-127676827D01*
X44234463Y-126852235D01*
X44222736Y-125270863D01*
X44222778Y-125159136D01*
X44244082Y-123640476D01*
X44329458Y-122875041D01*
X44515603Y-122732598D01*
X44839210Y-123082912D01*
X44906273Y-123173263D01*
X45298367Y-123570573D01*
X45833099Y-123710808D01*
X46751030Y-123607208D01*
X48292718Y-123273015D01*
X48990918Y-123110888D01*
X50225938Y-122773592D01*
X50879756Y-122408929D01*
X51158440Y-121856388D01*
X51268057Y-120955459D01*
X51276547Y-120851274D01*
X51291844Y-119812420D01*
X51006594Y-119378271D01*
X50265425Y-119290877D01*
X49906964Y-119281064D01*
X49205891Y-119111373D01*
X49298011Y-118772357D01*
X50132646Y-118318129D01*
X51659115Y-117802800D01*
X51711270Y-117788005D01*
X53383508Y-117379867D01*
X54277010Y-117316678D01*
X54376111Y-117595242D01*
X53665150Y-118212359D01*
X52965170Y-119004476D01*
X52689403Y-120430180D01*
X52691102Y-121150481D01*
X52796969Y-121706855D01*
X53195279Y-121875390D01*
X54075904Y-121709979D01*
X55628715Y-121264520D01*
X58036771Y-120564479D01*
X58036771Y-118627281D01*
X58004761Y-117462419D01*
X57780266Y-116149890D01*
X57279237Y-115472668D01*
X56429447Y-115280350D01*
X56236278Y-115275187D01*
X55476113Y-115049223D01*
X55515256Y-114632608D01*
X56365719Y-114224373D01*
X56901899Y-114081943D01*
X57766087Y-113911966D01*
X58340380Y-114014543D01*
G37*
%TD*%
D10*
%TO.C,JP1*%
X77470000Y-109855000D03*
X77470000Y-107315000D03*
%TD*%
D11*
%TO.C,SW1*%
X53340000Y-43688000D03*
X58420000Y-43688000D03*
%TD*%
D12*
%TO.C,J1*%
X97155000Y-153670000D03*
D13*
X97155000Y-156210000D03*
X97155000Y-158750000D03*
X97155000Y-161290000D03*
X97155000Y-163830000D03*
X97155000Y-166370000D03*
%TD*%
D12*
%TO.C,J9*%
X164480000Y-74295000D03*
D13*
X167020000Y-74295000D03*
X169560000Y-74295000D03*
%TD*%
D12*
%TO.C,J7*%
X164480000Y-83185000D03*
D13*
X167020000Y-83185000D03*
X169560000Y-83185000D03*
%TD*%
D14*
%TO.C,Q2*%
X65590000Y-161280000D03*
D15*
X65590000Y-163820000D03*
X65590000Y-166360000D03*
%TD*%
D16*
%TO.C,U2*%
X133350000Y-74295000D03*
D17*
X133350000Y-76835000D03*
X133350000Y-79375000D03*
X133350000Y-81915000D03*
X133350000Y-84455000D03*
D16*
X133350000Y-86995000D03*
X148590000Y-86995000D03*
X148590000Y-84455000D03*
D17*
X148590000Y-81915000D03*
X148590000Y-79375000D03*
D16*
X148590000Y-76835000D03*
X148590000Y-74295000D03*
%TD*%
D18*
%TO.C,U4*%
X123190000Y-99360000D03*
X123190000Y-101900000D03*
X123190000Y-104440000D03*
X123190000Y-106980000D03*
X123190000Y-109520000D03*
X123190000Y-112060000D03*
X123190000Y-114600000D03*
X123190000Y-117140000D03*
X123190000Y-119680000D03*
X123190000Y-122220000D03*
X123190000Y-124760000D03*
X123190000Y-127300000D03*
X123190000Y-129840000D03*
X123190000Y-132380000D03*
X123190000Y-134920000D03*
X148590000Y-134920000D03*
X148590000Y-132380000D03*
X148590000Y-129840000D03*
X148590000Y-127300000D03*
X148590000Y-124760000D03*
X148590000Y-122220000D03*
X148590000Y-119680000D03*
X148590000Y-117140000D03*
X148590000Y-114600000D03*
X148590000Y-112060000D03*
X148590000Y-109520000D03*
X148590000Y-106980000D03*
X148590000Y-104440000D03*
X148590000Y-101900000D03*
X148590000Y-99360000D03*
%TD*%
D12*
%TO.C,J_Batt1*%
X45090000Y-45720000D03*
D13*
X42550000Y-45720000D03*
%TD*%
D10*
%TO.C,JP2*%
X153670000Y-135275000D03*
X153670000Y-137815000D03*
%TD*%
D12*
%TO.C,J8*%
X164480000Y-78740000D03*
D13*
X167020000Y-78740000D03*
X169560000Y-78740000D03*
%TD*%
D19*
%TO.C,C4*%
X122555000Y-81280000D03*
D20*
X122555000Y-88780000D03*
%TD*%
D12*
%TO.C,J_I2C_2*%
X168255000Y-127000000D03*
D13*
X165715000Y-127000000D03*
%TD*%
D12*
%TO.C,J4*%
X129540000Y-38100000D03*
D13*
X127000000Y-38100000D03*
X124460000Y-38100000D03*
X121920000Y-38100000D03*
X119380000Y-38100000D03*
X116840000Y-38100000D03*
%TD*%
D21*
%TO.C,D2*%
X52705000Y-161158000D03*
D22*
X52705000Y-163698000D03*
%TD*%
D23*
%TO.C,Bat49*%
X128905000Y-67945000D03*
D24*
X116205000Y-67945000D03*
%TD*%
D21*
%TO.C,D3*%
X59055000Y-161285000D03*
D22*
X59055000Y-163825000D03*
%TD*%
D10*
%TO.C,R0*%
X113361000Y-156210000D03*
D25*
X108281000Y-156210000D03*
%TD*%
D12*
%TO.C,J_I2C_1*%
X168255000Y-132105000D03*
D13*
X165715000Y-132105000D03*
%TD*%
D19*
%TO.C,C2*%
X107315000Y-56575000D03*
D20*
X107315000Y-64075000D03*
%TD*%
D12*
%TO.C,J2*%
X97155000Y-41910000D03*
D13*
X97155000Y-44450000D03*
X97155000Y-46990000D03*
X97155000Y-49530000D03*
X97155000Y-52070000D03*
X97155000Y-54610000D03*
%TD*%
D12*
%TO.C,J_DC-DC1*%
X87884000Y-88392000D03*
D13*
X87884000Y-90932000D03*
X87884000Y-93472000D03*
X87884000Y-96012000D03*
X87884000Y-98552000D03*
%TD*%
D12*
%TO.C,J6*%
X116840000Y-170180000D03*
D13*
X119380000Y-170180000D03*
X121920000Y-170180000D03*
X124460000Y-170180000D03*
X127000000Y-170180000D03*
X129540000Y-170180000D03*
%TD*%
D19*
%TO.C,C3*%
X116840000Y-81340000D03*
D20*
X116840000Y-88840000D03*
%TD*%
D12*
%TO.C,J5*%
X177800000Y-110490000D03*
D13*
X177800000Y-107950000D03*
X177800000Y-105410000D03*
X177800000Y-102870000D03*
X177800000Y-100330000D03*
X177800000Y-97790000D03*
%TD*%
D21*
%TO.C,D1*%
X46355000Y-161290000D03*
D22*
X46355000Y-163830000D03*
%TD*%
M02*
