%TF.GenerationSoftware,KiCad,Pcbnew,6.0.2+dfsg-1*%
%TF.CreationDate,2025-04-12T20:02:47+02:00*%
%TF.ProjectId,Placa base v1.0,506c6163-6120-4626-9173-652076312e30,rev?*%
%TF.SameCoordinates,Original*%
%TF.FileFunction,Paste,Top*%
%TF.FilePolarity,Positive*%
%FSLAX46Y46*%
G04 Gerber Fmt 4.6, Leading zero omitted, Abs format (unit mm)*
G04 Created by KiCad (PCBNEW 6.0.2+dfsg-1) date 2025-04-12 20:02:47*
%MOMM*%
%LPD*%
G01*
G04 APERTURE LIST*
G04 Aperture macros list*
%AMRoundRect*
0 Rectangle with rounded corners*
0 $1 Rounding radius*
0 $2 $3 $4 $5 $6 $7 $8 $9 X,Y pos of 4 corners*
0 Add a 4 corners polygon primitive as box body*
4,1,4,$2,$3,$4,$5,$6,$7,$8,$9,$2,$3,0*
0 Add four circle primitives for the rounded corners*
1,1,$1+$1,$2,$3*
1,1,$1+$1,$4,$5*
1,1,$1+$1,$6,$7*
1,1,$1+$1,$8,$9*
0 Add four rect primitives between the rounded corners*
20,1,$1+$1,$2,$3,$4,$5,0*
20,1,$1+$1,$4,$5,$6,$7,0*
20,1,$1+$1,$6,$7,$8,$9,0*
20,1,$1+$1,$8,$9,$2,$3,0*%
G04 Aperture macros list end*
%ADD10RoundRect,0.250000X0.450000X-0.262500X0.450000X0.262500X-0.450000X0.262500X-0.450000X-0.262500X0*%
%ADD11RoundRect,0.250000X-0.450000X0.262500X-0.450000X-0.262500X0.450000X-0.262500X0.450000X0.262500X0*%
%ADD12RoundRect,0.150000X0.150000X-0.825000X0.150000X0.825000X-0.150000X0.825000X-0.150000X-0.825000X0*%
%ADD13RoundRect,1.500000X2.000000X-1.500000X2.000000X1.500000X-2.000000X1.500000X-2.000000X-1.500000X0*%
%ADD14RoundRect,1.500000X-2.000000X1.500000X-2.000000X-1.500000X2.000000X-1.500000X2.000000X1.500000X0*%
%ADD15RoundRect,0.250000X0.350000X0.450000X-0.350000X0.450000X-0.350000X-0.450000X0.350000X-0.450000X0*%
%ADD16RoundRect,0.250000X0.312500X0.625000X-0.312500X0.625000X-0.312500X-0.625000X0.312500X-0.625000X0*%
%ADD17RoundRect,0.250000X0.450000X-0.350000X0.450000X0.350000X-0.450000X0.350000X-0.450000X-0.350000X0*%
%ADD18RoundRect,0.250000X0.625000X-0.312500X0.625000X0.312500X-0.625000X0.312500X-0.625000X-0.312500X0*%
%ADD19RoundRect,0.250000X-0.350000X-0.450000X0.350000X-0.450000X0.350000X0.450000X-0.350000X0.450000X0*%
G04 APERTURE END LIST*
D10*
%TO.C,R14*%
X51435000Y-169822500D03*
X51435000Y-167997500D03*
%TD*%
D11*
%TO.C,R_Shunt1*%
X87630000Y-75414500D03*
X87630000Y-77239500D03*
%TD*%
D12*
%TO.C,U1*%
X92710000Y-78802000D03*
X93980000Y-78802000D03*
X95250000Y-78802000D03*
X96520000Y-78802000D03*
X96520000Y-73852000D03*
X95250000Y-73852000D03*
X93980000Y-73852000D03*
X92710000Y-73852000D03*
%TD*%
D10*
%TO.C,R16*%
X59055000Y-169822500D03*
X59055000Y-167997500D03*
%TD*%
D13*
%TO.C,U5*%
X41295000Y-145415000D03*
X41295000Y-62865000D03*
%TD*%
D14*
%TO.C,U6*%
X60345000Y-62865000D03*
X60345000Y-145415000D03*
%TD*%
D15*
%TO.C,R6*%
X130540000Y-115570000D03*
X128540000Y-115570000D03*
%TD*%
D16*
%TO.C,R8*%
X143067500Y-102057200D03*
X140142500Y-102057200D03*
%TD*%
D15*
%TO.C,R4*%
X130540000Y-124460000D03*
X128540000Y-124460000D03*
%TD*%
D17*
%TO.C,R13*%
X148590000Y-95615000D03*
X148590000Y-93615000D03*
%TD*%
D16*
%TO.C,R7*%
X143067500Y-111125000D03*
X140142500Y-111125000D03*
%TD*%
D18*
%TO.C,R15*%
X55245000Y-170372500D03*
X55245000Y-167447500D03*
%TD*%
D19*
%TO.C,R10*%
X96663000Y-62865000D03*
X98663000Y-62865000D03*
%TD*%
D15*
%TO.C,R12*%
X142605000Y-106680000D03*
X140605000Y-106680000D03*
%TD*%
D19*
%TO.C,R9*%
X91075000Y-62865000D03*
X93075000Y-62865000D03*
%TD*%
D15*
%TO.C,R11*%
X142970000Y-125095000D03*
X140970000Y-125095000D03*
%TD*%
%TO.C,R5*%
X130540000Y-120015000D03*
X128540000Y-120015000D03*
%TD*%
M02*
